<?xml version="1.0" encoding="UTF-8" standalone="no"?>
<!-- Created with Inkscape (http://www.inkscape.org/) -->

<svg
   version="1.1"
   id="svg1"
   width="1783"
   height="1668"
   viewBox="0 0 1783 1668"
   sodipodi:docname="310469334_401473625517675_6819093067756901928_n.jpg"
   xmlns:inkscape="http://www.inkscape.org/namespaces/inkscape"
   xmlns:sodipodi="http://sodipodi.sourceforge.net/DTD/sodipodi-0.dtd"
   xmlns="http://www.w3.org/2000/svg"
   xmlns:svg="http://www.w3.org/2000/svg">
  <defs
     id="defs1" />
  <sodipodi:namedview
     id="namedview1"
     pagecolor="#505050"
     bordercolor="#eeeeee"
     borderopacity="1"
     inkscape:showpageshadow="0"
     inkscape:pageopacity="0"
     inkscape:pagecheckerboard="0"
     inkscape:deskcolor="#505050">
    <inkscape:page
       x="0"
       y="0"
       width="1783"
       height="1668"
       id="page2"
       margin="0"
       bleed="0" />
  </sodipodi:namedview>
  <g
     inkscape:groupmode="layer"
     inkscape:label="Image"
     id="g1">
    <path
       style="fill:#000000"
       d="m 1304.1582,1661.4354 c -13.3954,-2.2288 -28.6138,-6.9602 -42.6556,-13.2618 l -5.8444,-2.6228 v -25.3635 -25.3634 h 19.5 19.5 v 8.9797 8.9797 l 3.75,1.91 c 10.0315,5.1094 25.0448,6.6251 36.2047,3.6553 8.9535,-2.3828 17.7374,-7.1618 18.4608,-10.0439 1.4574,-5.807 -5.5042,-12.4702 -13.036,-12.4771 -6.9424,-0.01 -27.3784,-3.9495 -36.8795,-7.116 -17.4329,-5.8101 -30.575,-14.8692 -38.6976,-26.6749 -7.7478,-11.2611 -7.8397,-37.1869 -0.1817,-51.2573 3.2221,-5.9199 12.2158,-15.1893 18.0616,-18.6152 6.4019,-3.7518 17.3532,-8.0514 26.372,-10.3542 18.2019,-4.6473 45.5865,-1.2781 74.6893,9.1893 l 9.2437,3.3246 0.01,23.75 0.01,23.75 h -19.5 -19.5 v -7.366 -7.366 l -6.25,-2.2902 c -12.2441,-4.4866 -25.0761,-3.7402 -38,2.2104 -7.1806,3.3061 -7.4931,3.8462 -6.14,10.6117 0.5418,2.7089 1.4048,3.3445 7.718,5.6846 8.2197,3.0468 19.1775,5.5152 24.4874,5.5162 5.5589,0 21.6467,4.6913 30.9133,9.0124 17.1661,8.0048 26.6685,18.4248 29.8705,32.7546 1.49,6.668 1.5686,8.9711 0.5712,16.7323 -1.9083,14.8495 -4.551,21.9648 -10.4904,28.2448 -11.5288,12.19 -25.8574,20.538 -42.68,24.8656 -7.9898,2.0554 -29.8355,2.6091 -39.5,1.0011 z m -1032.75002,-2.294 c -1.5978,-0.4238 -1.75,-2.3279 -1.75,-21.8908 v -21.4267 h 7.8119 7.8119 l 4.0719,-9.75 c 2.2395,-5.3625 5.0825,-12.9 6.3178,-16.75 1.2352,-3.85 3.3828,-9.7 4.7724,-13 2.3295,-5.5321 13.1664,-34.1857 18.7211,-49.5 1.2967,-3.575 5.7058,-15.05 9.798,-25.5 l 7.44029,-19 h 19.74334 19.74334 l 4.39015,11.5 c 9.38079,24.573 15.59908,40.7072 17.53616,45.5 1.11146,2.75 3.0597,8.15 4.32941,12 3.83386,11.625 22.27288,59.5068 23.80342,61.8119 1.28121,1.9296 2.34109,2.1524 10.3184,2.1693 l 8.89052,0.019 0.2695,21.75 0.2695,21.75 H 400.2847 c -40.48778,0 -45.47834,-0.1715 -46.0195,-1.5818 -0.33385,-0.87 -0.60699,-10.4797 -0.60699,-21.355 v -19.7731 l 7.11841,-0.5968 c 3.91513,-0.3282 7.29216,-0.7705 7.50451,-0.9829 0.51662,-0.5166 -1.65944,-6.886 -2.89046,-8.4604 -1.11656,-1.428 -7.34385,-1.5578 -28.44081,-0.5927 l -14.20838,0.65 -1.4974,4.3947 c -1.792,5.2591 -1.9486,5.162 8.9141,5.5283 l 8.00003,0.2697 v 21.5 21.5 l -32.50003,0.1408 c -17.875,0.077 -33.2875,-0.068 -34.25,-0.3233 z m 83.4416,-91.8424 c 0.61208,-0.6121 -4.40392,-22.1054 -6.52867,-27.9751 -0.89469,-2.4716 -1.63562,-3.4269 -1.9391,-2.5 -5.75917,17.5889 -9.35963,29.6553 -9.02624,30.25 0.47052,0.8393 16.67138,1.0477 17.49401,0.2251 z m 100.4751,91.8582 c -0.36667,-0.3666 -0.66667,-11.1062 -0.66667,-23.8656 v -23.199 l 6.86367,-0.4911 c 3.77502,-0.2701 7.37502,-0.8071 8,-1.1933 0.81647,-0.5047 1.13633,-11.4953 1.13633,-39.0455 v -38.3431 l -3.14922,-1.0979 c -1.73208,-0.6038 -4.88208,-1.0978 -7,-1.0978 h -3.85078 v -23.5 -23.5 h 32.84501 c 37.70146,0 33.5147,-1.1731 39.95425,11.1946 2.20351,4.2321 6.97512,12.6219 10.60357,18.6441 3.62844,6.0222 6.59717,11.2679 6.59717,11.6571 0,0.3893 3.375,6.4372 7.5,13.44 4.125,7.0027 7.5,13.0705 7.5,13.4838 0,0.4134 2.8125,5.4834 6.25,11.2667 l 6.25,10.515 0.27083,-20.7788 c 0.20795,-15.9541 -0.0242,-20.966 -1,-21.5853 -0.69896,-0.4436 -3.63333,-0.8135 -6.52083,-0.8219 l -5.25,-0.015 v -23.5 -23.5 h 35.01913 35.01913 l -0.26913,22.25 -0.26913,22.25 -4.5,1.2856 c -2.475,0.7071 -5.625,1.618 -7,2.0241 l -2.5,0.7385 v 38.9759 38.9759 l 5.75,0.8635 5.75,0.8635 -1e-4,22.6365 -9e-5,22.6365 -28.10361,-0.187 c -15.45698,-0.1029 -28.24318,-0.3279 -28.41378,-0.5 -0.91431,-0.9226 -16.18127,-27.1963 -18.7762,-32.313 -3.83137,-7.5547 -34.2126,-60.8008 -37.36292,-65.4821 l -2.3433,-3.4822 v 27.2636 c 0,20.932 0.29029,27.3558 1.25,27.6611 0.6875,0.2187 4.2875,0.6904 8,1.0482 l 6.75,0.6506 v 23.9204 23.9204 h -36.83333 c -20.25834,0 -37.13334,-0.3 -37.5,-0.6667 z m 185.78521,-0.5981 c -0.27209,-0.7091 -0.37257,-10.4739 -0.2233,-21.6996 l 0.27142,-20.4104 4.37088,-0.224 c 2.40398,-0.1232 5.88229,-0.5075 7.72957,-0.8541 l 3.3587,-0.6301 0.27043,-44.0544 c 0.14873,-24.2299 -0.0821,-44.2721 -0.51295,-44.5381 -0.43085,-0.2661 -4.15194,-0.7385 -8.26909,-1.0499 l -7.48573,-0.5662 0.26909,-21.6042 0.2691,-21.6042 h 37.5 37.5 l 0.29329,21.75 0.29328,21.75 -5.79328,0.014 c -3.18631,0.01 -6.80579,0.2849 -8.04329,0.6166 l -2.25,0.603 v 44.3221 44.3221 l 4.25,0.5576 c 2.3375,0.3067 5.825,0.6718 7.75,0.8113 l 3.5,0.2536 v 21.5 21.5 l -37.2767,0.2622 c -29.69295,0.2089 -37.37735,-10e-5 -37.77142,-1.027 z m 204.54812,-22.1931 v -23.458 l 7.75,-0.292 7.75,-0.2921 0.0731,-21.5 c 0.0402,-11.825 -0.23416,-22.625 -0.60968,-24 l -0.68275,-2.5 -1.2081,3 c -0.66445,1.65 -6.43179,13.4625 -12.81631,26.25 l -11.60823,23.25 h -13.22399 -13.22398 l -13.35003,-25.4157 -13.35003,-25.4158 -0.26915,22.5633 c -0.14804,12.4098 -0.005,22.8271 0.3173,23.1497 0.32254,0.3225 3.93116,0.7553 8.01915,0.9618 l 7.4327,0.3753 v 22.8907 22.8907 h -36.5 -36.5 v -22.5 -22.5 h 7.5 7.5 v -40.5 -40.5 h -6 -6 v -22.9182 c 0,-12.605 0.27314,-23.63 0.60699,-24.5 0.5343,-1.3924 4.10019,-1.5818 29.77631,-1.5818 h 29.16933 l 5.27787,10.25 c 2.90282,5.6375 10.95503,21.461 17.89379,35.1634 l 12.61593,24.9135 17.5733,-35.1635 17.5733,-35.1634 h 30.75659 30.75659 v 24.5 24.5 h -7 -7 v 40 40 h 8 8 v 23.5 23.5 h -37.5 -37.5 z m 86.75,22.7686 c -1.59251,-0.4162 -1.75,-2.2432 -1.75,-20.3022 0,-10.9147 -0.27314,-20.5567 -0.60699,-21.4267 -0.52283,-1.3625 0.52051,-1.5818 7.52475,-1.5818 7.94003,0 8.15626,-0.064 9.17158,-2.735 0.57191,-1.5042 1.71746,-4.163 2.54567,-5.9083 0.8282,-1.7453 3.66514,-9.177 6.30431,-16.515 2.63917,-7.3379 8.96064,-24.1417 14.04772,-37.3417 5.08709,-13.2 9.73159,-25.35 10.32119,-27 0.5896,-1.65 3.8346,-10.2 7.2111,-19 3.3765,-8.8 6.9282,-18.1375 7.8926,-20.75 l 1.75347,-4.75 h 19.76369 19.7637 l 3.7707,10.25 c 2.0739,5.6375 5.7699,15.425 8.2134,21.75 2.4434,6.325 5.3636,13.975 6.4893,17 1.1257,3.025 3.0847,8.2 4.3533,11.5 1.2687,3.3 4.1118,10.95 6.318,17 8.8123,24.1653 20.3345,54.0498 21.1629,54.889 0.4826,0.4889 4.894,0.8007 9.8029,0.6928 l 8.9254,-0.1962 0.6376,5.8072 c 0.3507,3.194 0.4082,12.3322 0.1278,20.3072 -0.2805,7.975 -0.5063,15.2875 -0.502,16.25 0.01,1.6411 -2.817,1.75 -45.3786,1.75 h -45.3864 l -0.6776,-4.5186 c -0.7113,-4.7433 -0.5707,-33.6843 0.1776,-36.5457 0.3268,-1.25 2.0598,-1.8134 6.996,-2.2743 3.6089,-0.337 6.7694,-0.8206 7.0234,-1.0746 0.254,-0.254 -0.1822,-2.4024 -0.9695,-4.7743 -1.7667,-5.3231 -1.313,-5.2469 -25.6155,-4.3018 l -18.33856,0.7131 -1.7844,4.1381 c -0.9814,2.276 -1.59,4.4756 -1.3525,4.8881 0.2376,0.4125 4.4554,0.75 9.373,0.75 h 8.94097 v 22 22 l -32.25,-0.116 c -17.7375,-0.064 -33.0375,-0.3218 -34,-0.5733 z m 82.68989,-92.2135 c 0.5736,-0.9281 -6.0188,-28.4764 -7.4212,-31.0118 -0.5219,-0.9435 -1.1359,0.2218 -1.8441,3.5 -0.584,2.703 -2.8116,9.9776 -4.9504,16.1658 -2.13869,6.1881 -3.66409,11.4756 -3.38969,11.75 0.8944,0.8945 17.03179,0.5242 17.60539,-0.404 z m 100.789,72.1528 0.2711,-19.75 7.7936,-0.5 7.7935,-0.5 -0.063,-45.8766 c -0.034,-25.2322 -0.3057,-46.2697 -0.6026,-46.75 -0.2968,-0.4804 -3.8882,-0.8734 -7.9807,-0.8734 h -7.4408 v -21 -21 h 38.5 38.5 v 21 21 h -8 -8 v 47.0254 47.0254 l 15.75,-0.2754 15.75,-0.2754 0.2838,-10.75 0.2839,-10.75 16.4661,-0.091 c 9.0564,-0.05 17.9287,-0.132 19.7162,-0.1821 l 3.25,-0.091 0.2642,31.1822 0.2643,31.1821 h -66.5354 -66.5354 z m -43.2289,-208.2306 c -10.0004,-1.2854 -25.1624,-3.9808 -28.5,-5.0666 -1.65,-0.5367 -7.5,-2.2855 -13,-3.8862 -12.4518,-3.6239 -24.1208,-7.7192 -41.49996,-14.5645 -26.76268,-10.5414 -36.54298,-14.3053 -39.00003,-15.0088 -1.375,-0.3937 -3.85,-1.2879 -5.5,-1.9873 -3.71004,-1.5725 -7.65434,-2.8972 -13.5,-4.5342 -2.475,-0.6931 -6.50298,-1.8957 -8.95107,-2.6724 -9.04819,-2.8708 -24.539,-4.7994 -38.54893,-4.7994 -7.7,0 -15.35,0.2957 -17,0.6571 -1.65,0.3614 -5.97324,1.1473 -9.60719,1.7464 -7.70724,1.2706 -35.92348,7.7034 -50.5214,11.5179 -5.57072,1.4557 -10.97072,2.8184 -12,3.0284 -1.02927,0.2099 -14.24641,3.5257 -29.37141,7.3685 -15.125,3.8427 -32,7.9658 -37.5,9.1625 -5.5,1.1967 -14.05,3.0865 -19,4.1997 -11.03692,2.4819 -10.34585,2.3487 -25,4.8217 -42.04994,7.0962 -52.916,8.1422 -84,8.0864 -29.15542,-0.052 -44.22601,-1.7005 -66,-7.2175 -9.22081,-2.3363 -27.71893,-8.8915 -28.58998,-10.1315 -0.32448,-0.4619 -1.56198,-0.913 -2.75,-1.0025 -1.18801,-0.09 -2.16002,-0.5169 -2.16002,-0.9499 0,-0.433 -0.46561,-0.7872 -1.03469,-0.7872 -2.04269,0 -17.63953,-9.4295 -26.46531,-16.0003 -9.58686,-7.1375 -20.4485,-17.6785 -23.86937,-23.1648 -1.14368,-1.8342 -2.65344,-3.9295 -3.35502,-4.6563 -0.70159,-0.7268 -1.33186,-1.7393 -1.40061,-2.25 -0.18815,-1.3977 -0.44403,-2.1926 -1.5866,-4.9286 -1.98595,-4.7556 -4.21908,-11.8734 -5.54532,-17.675 -2.35897,-10.3191 -2.0777,-33.7966 0.6149,-51.325 1.3239,-8.6185 6.01228,-29.6132 7.5926,-34 0.49534,-1.375 1.9029,-5.875 3.1279,-10 2.35934,-7.9447 9.03492,-26.3661 11.46977,-31.6511 0.79846,-1.7332 1.45175,-3.4094 1.45175,-3.725 0,-0.3156 1.29041,-3.3976 2.86757,-6.8489 1.57716,-3.4512 3.87377,-8.525 5.10358,-11.275 9.48489,-21.2094 31.66707,-61.6193 45.56106,-83 11.15023,-17.1584 16.51386,-25.2349 20.58738,-31 2.33171,-3.3 6.29618,-8.9508 8.80994,-12.5573 4.23937,-6.0823 14.91816,-20.4889 17.74729,-23.9427 1.48685,-1.8151 12.03801,-15.0948 13.10979,-16.5 0.41952,-0.55 3.83857,-4.6 7.59791,-9 3.75933,-4.4 7.95073,-9.3501 9.31422,-11.0001 25.38673,-30.72117 71.61741,-75.43557 103.36508,-99.97477 50.5585,-39.0789 101.15366,-63.7833 142.43618,-69.5482 11.13918,-1.5555 34.6702,-1.5781 43.88839,-0.042 44.30395,7.3821 89.14995,30.5326 139.6116,72.0705 4.125,3.3956 9.075,7.6225 11,9.3932 1.925,1.7707 3.873,3.418 4.3288,3.6605 0.4558,0.2426 6.4183,5.8667 13.25,12.4982 6.8317,6.6314 12.4212,11.9176 12.4212,11.7471 0,-0.1705 1.622,1.4853 3.6043,3.6795 1.9824,2.1943 5.2449,5.6835 7.25,7.7539 7.86,8.1156 27.4806,30.1017 32.6457,36.5814 1.65,2.07 4.4056,5.4325 6.1235,7.4722 3.6421,4.32447 24.4055,31.12107 25.8765,33.39547 0.55,0.8504 3.3488,4.8688 6.2195,8.9297 8.8442,12.5112 11.4033,16.1831 15.2513,21.8836 3.6993,5.4804 11.6284,17.8493 13.5292,21.1048 0.55,0.942 4.0375,6.7194 7.75,12.8387 3.7125,6.1192 6.75,11.3442 6.75,11.611 0,0.2669 1.0761,2.1899 2.3913,4.2733 6.6911,10.5994 25.1391,47.4901 32.0906,64.1722 1.4898,3.575 3.3207,7.85 4.0687,9.5 1.3689,3.0196 3.2744,8.1851 6.0866,16.5 0.8371,2.475 1.9102,5.4 2.3846,6.5 0.4745,1.1 2.0327,6.05 3.4629,11 1.4301,4.95 2.9894,9.9 3.465,11 0.4757,1.1 1.3831,4.25 2.0166,7 0.6335,2.75 1.5537,6.575 2.0449,8.5 4.4047,17.261 6.0879,31.4113 6.0069,50.5 -0.1472,34.7435 -6.0428,49.7697 -28.0098,71.3897 -12.8992,12.6954 -39.085,33.5694 -45.0083,35.8783 -0.825,0.3216 -2.85,1.575 -4.5,2.7853 -4.7816,3.5073 -24.2093,12.4434 -33.7142,15.5073 -16.3704,5.277 -27.0092,7.0426 -44.7858,7.4325 -9.075,0.199 -19.425,-0.014 -23,-0.4737 z m -433.01632,-97.0096 c 30.45184,-8.7335 49.06922,-34.3225 48.99897,-67.3478 -0.0699,-32.8585 -19.64385,-58.6975 -50.98264,-67.3008 -9.11474,-2.5022 -33.81546,-2.5369 -43,-0.06 -24.6375,6.6433 -42.81201,24.1297 -49.57618,47.6991 -2.91661,10.1628 -2.69209,32.0233 0.43124,41.9879 2.95926,9.4412 5.30595,14.0509 10.7829,21.1813 10.73019,13.9696 25.09804,22.3815 44.1929,25.8736 8.34941,1.527 30.80552,0.3609 39.15281,-2.033 z m -31.48367,-18.9231 c -12.08379,-3.3592 -21.14455,-13.3853 -24.93055,-27.5867 -7.24118,-27.1618 1.95309,-57.7385 20.01517,-66.5629 6.92537,-3.3835 18.91948,-3.3856 25.41538,0 9.69041,5.0439 14.67673,11.3211 18.68653,23.524 2.35949,7.1807 2.64537,9.5987 2.66531,22.5434 0.0203,13.1731 -0.22349,15.2109 -2.6639,22.2685 -1.47744,4.2727 -3.74783,9.4502 -5.04533,11.5056 -3.08206,4.8823 -9.95375,11.0401 -14.38707,12.8925 -4.22693,1.7661 -15.57623,2.582 -19.75554,1.4201 z m 331.48367,18.9016 c 31.90541,-9.059 50.81156,-36.912 48.72046,-71.7763 -0.6839,-11.4021 -2.5008,-18.786 -6.7839,-27.5706 -8.376,-17.1786 -24.15611,-29.8545 -43.92023,-35.2802 -10.12744,-2.7802 -33.94563,-2.5548 -44.29918,0.4193 -23.44636,6.7351 -40.04288,22.3841 -47.40472,44.6984 -2.34934,7.1211 -2.65468,9.6481 -2.72119,22.5211 -0.0649,12.5644 0.23894,15.4996 2.27613,21.9879 2.84055,9.0469 5.20884,13.8249 10.2044,20.5871 10.23564,13.8555 25.62471,22.9537 44.77542,26.4716 8.20577,1.5074 30.77295,0.3211 39.15281,-2.0583 z m -33.16312,-19.3198 c -8.25177,-2.3339 -14.98386,-8.5157 -19.8737,-18.2493 -10.37152,-20.6452 -6.37261,-54.4651 8.19754,-69.3288 6.07655,-6.199 11.60515,-8.3968 21.35561,-8.4893 6.81878,-0.065 8.73826,0.3155 13,2.5751 9.10665,4.8284 14.8096,12.4274 18.62999,24.8238 3.33457,10.8201 3.38089,31.269 0.0945,41.7327 -3.96535,12.6256 -9.77341,20.4188 -18.57226,24.9201 -5.93992,3.0387 -16.05692,3.9319 -22.83171,2.0157 z m -107.82055,10.8315 v -9.5 h -5.54545 c -4.55444,0 -5.98411,-0.4386 -8,-2.4545 l -2.45455,-2.4546 v -44.923 c 0,-50.1139 -0.3057,-47.9952 6.73904,-46.7068 8.30375,1.5187 17.80844,9.7971 23.00735,20.0389 1.39594,2.75 3.15416,5.9413 3.90715,7.0917 l 1.36908,2.0918 8.73869,-3.009 c 4.80628,-1.6549 8.85607,-3.0886 8.99953,-3.1859 0.14346,-0.097 -3.49831,-10.9346 -8.09283,-24.0828 l -8.35368,-23.9058 -6.47769,-0.2916 c -6.096,-0.2744 -6.54594,-0.1418 -7.63573,2.25 l -1.15803,2.5416 h -38.41303 -38.41303 l -0.63876,-2.545 c -0.61406,-2.4466 -0.89489,-2.5336 -7.26557,-2.25 l -6.62682,0.295 -8.35368,23.9058 c -4.59452,13.1482 -8.23629,23.9855 -8.09283,24.0828 0.14346,0.097 4.19697,1.5323 9.00779,3.1888 l 8.74694,3.0118 4.07416,-7.5946 c 6.54498,-12.2005 15.61992,-20.222 24.48021,-21.6385 2.97173,-0.4751 4.37577,-0.2526 5.27987,0.8368 0.94476,1.1384 1.16642,12.0115 0.95174,46.6845 l -0.27987,45.2006 -2.36078,1.911 c -1.67134,1.3529 -3.93467,1.911 -7.75,1.911 h -5.38922 v 9.5 9.5 h 33 33 z m 317.12199,-15.5 c 4.8431,-13.475 8.822,-24.7528 8.8419,-25.0619 0.045,-0.6994 -17.8313,-6.4667 -18.1976,-5.871 -0.1465,0.2381 -2.0663,4.0086 -4.2663,8.3788 -9.7094,19.2875 -25.5364,27.4026 -51.3958,26.3525 l -7.3472,-0.2984 32.8143,-43 c 18.0478,-23.65 34.5256,-45.25 36.6172,-48 3.769,-4.9554 3.8029,-5.0826 3.8072,-14.2596 v -9.2596 l -48.1502,0.2596 -48.1501,0.2596 -10.2981,23 c -5.664,12.65 -9.984,23.2924 -9.5999,23.6499 0.91,0.847 15.1523,6.8501 16.2517,6.8501 0.4642,0 3.6132,-4.2748 6.9977,-9.4995 11.6341,-17.9592 19.2559,-22.4071 39.8678,-23.266 l 12.4188,-0.5175 -2.0649,2.8915 c -1.1358,1.5903 -17.6368,23.3219 -36.6689,48.2924 l -34.5996,45.4008 v 9.3581 9.358 l 52.1581,-0.2589 52.1581,-0.2589 z m -149.85327,-175.747 c 3.79138,-1.4941 7.73131,-5.4533 7.73131,-7.7691 0,-1.1369 -6.9271,-3.4839 -10.28234,-3.4839 -0.76816,0 -1.88079,1.0626 -2.47251,2.3612 -1.48743,3.2646 -4.67997,3.8712 -7.73329,1.4695 -1.97274,-1.5518 -2.5086,-2.8725 -2.49658,-6.1533 0.0172,-4.6865 0.59751,-5.9204 3.48469,-7.4095 2.39518,-1.2354 5.75056,-0.1525 7.643,2.4665 0.99261,1.3737 2.63252,1.8863 6.107,1.9088 l 4.75003,0.031 v -6.8113 -6.8112 l -4.48953,0.2971 c -2.46923,0.1634 -4.72644,0.534 -5.01602,0.8236 -0.28959,0.2896 -2.81298,-0.067 -5.60752,-0.7915 -13.59516,-3.5265 -25.71526,6.0601 -23.3825,18.4948 2.18673,11.6562 17.31038,17.0733 31.76426,11.3775 z m 45.31637,0.654 c 3.0899,-0.9547 9.2166,-6.4386 8.261,-7.3942 -0.2795,-0.2795 -3.1845,-0.7879 -6.4556,-1.1298 -4.7899,-0.5006 -6.2092,-0.3064 -7.2915,0.9977 -1.5751,1.8978 -6.17619,2.1421 -7.89899,0.4193 -0.66,-0.66 -1.2,-2.235 -1.2,-3.5 0,-2.2722 0.1449,-2.3 11.99999,-2.3 11.7843,0 11.9996,-0.04 11.978,-2.25 -0.036,-3.6561 -3.6051,-10.4595 -6.4737,-12.3392 -10.7374,-7.0354 -27.97296,-3.7134 -32.11036,6.1889 -6.4061,15.332 9.9324,27.2578 29.19116,21.3073 z m -14.30099,-18.609 c -0.7323,-1.9084 0.3267,-4.0193 2.6365,-5.2555 1.63999,-0.8777 2.42509,-0.6968 4.05649,0.9346 2.2682,2.2682 2.6714,4.956 0.7729,5.1518 -5.02369,0.5183 -7.03409,0.2945 -7.46589,-0.8309 z m -234.2841,16.6587 c 6.70693,-3.3766 11,-10.3058 11,-17.7546 v -3.8621 l -10,-0.2231 -10,-0.2232 v 4.5532 c 0,4.1427 0.21688,4.5531 2.40638,4.5531 1.92025,0 2.2999,0.4072 1.87929,2.0156 -0.68309,2.6121 -1.42545,3.013 -5.89133,3.1809 -5.61883,0.2112 -7.39434,-2.5973 -7.39434,-11.6965 0,-9.0037 1.68532,-11.7 7.31309,-11.7 3.74964,0 8.68691,2.4002 8.68691,4.2231 0,0.5373 2.69204,0.9769 5.98231,0.9769 h 5.98231 l -0.23231,-8.25 -0.23231,-8.25 h -5.5 c -4.68337,0 -5.45637,0.2598 -5.20616,1.75 0.32337,1.9259 -0.84295,2.3009 -2.37898,0.7649 -1.91785,-1.9179 -11.26055,-3.0269 -16.33375,-1.9389 -16.49418,3.5374 -23.90196,24.8379 -12.78338,36.7577 6.81054,7.3013 23.25775,9.8778 32.70227,5.123 z m 40.132,1.864 c 1.48266,-2.3384 1.03517,-8.8207 -0.60893,-8.8207 -1.23684,0 -1.52131,-2.8854 -1.75,-17.75 l -0.27307,-17.75 h -9.5 -9.5 l -0.30479,4.75 c -0.2365,3.6857 0.0304,4.75 1.1912,4.75 1.22788,0 1.55133,2.154 1.80479,12.0189 0.34199,13.3107 0.25691,13.9811 -1.77453,13.9811 -1.00428,0 -1.41667,1.2614 -1.41667,4.3333 0,2.3834 0.21175,4.5451 0.47055,4.8039 0.2588,0.2588 5.05009,0.5906 10.64731,0.7373 7.57672,0.1987 10.3907,-0.071 11.01414,-1.0538 z m 27.868,-3.9626 c 0,-2.5803 -0.47246,-4.8489 -1.04991,-5.0414 -0.62655,-0.2089 -1.1306,-4.5773 -1.25,-10.8333 l -0.20009,-10.4834 -9.75,-0.2862 -9.75,-0.2862 v 5.0362 c 0,3.81 0.36523,5.0362 1.5,5.0362 1.16667,0 1.5,1.3333 1.5,6 0,4.6667 -0.33333,6 -1.5,6 -1.13622,0 -1.5,1.2304 -1.5,5.0732 v 5.0731 l 11,-0.2983 11,-0.2984 z m 33.43469,-2.6081 c 1.62248,-3.9875 3.26154,-7.25 3.64235,-7.25 0.38081,0 2.14545,3.3064 3.92142,7.3476 l 3.22904,7.3476 6.30338,-0.098 c 3.46686,-0.054 6.49078,-0.3226 6.71984,-0.5976 0.22905,-0.275 2.34078,-5.1125 4.69272,-10.75 2.51725,-6.0337 4.84809,-10.25 5.66641,-10.25 1.00151,0 1.39015,-1.3978 1.39015,-5 v -5 h -7.5 -7.5 v 5 c 0,3.6841 0.37881,5 1.4393,5 1.23848,0 1.22536,0.6279 -0.094,4.5 -1.36203,3.9973 -3.3453,6.1033 -3.3453,3.5523 0,-0.5213 -1.39986,-4.8165 -3.1108,-9.5449 l -3.1108,-8.5971 -6.01505,0.2949 -6.01505,0.2948 -3.62343,9.8377 -3.62342,9.8376 -1.7245,-3.8376 c -2.13797,-4.7574 -2.20701,-6.3373 -0.27695,-6.3373 1.11017,0 1.5,-1.1645 1.5,-4.4809 0,-5.385 -0.53237,-5.6 -12.99507,-5.2487 l -8.49508,0.2394 -0.12654,4.6924 c -0.10552,3.9131 0.19303,4.7426 1.79784,4.9951 1.36299,0.2144 3.24348,3.2162 6.44613,10.2897 2.48696,5.4929 5.05071,10.3407 5.69723,10.773 0.64652,0.4323 3.64705,0.6631 6.66786,0.513 l 5.49236,-0.273 z m 63.56476,2.5 c 3e-4,-2.6125 -0.43423,-4.75 -0.96562,-4.75 -0.54404,0 -1.09018,-4.6968 -1.25,-10.75 l -0.28383,-10.75 -9.75,-0.2862 -9.75,-0.2862 v 5.0362 c 0,3.81 0.36523,5.0362 1.5,5.0362 1.16667,0 1.5,1.3333 1.5,6 0,4.6667 -0.33333,6 -1.5,6 -1.13649,0 -1.5,1.2311 -1.5,5.0802 v 5.0802 l 10.99945,-0.3302 10.99946,-0.3302 z M 823.24,1099.8239 c 0.78001,0 2.32852,-0.9103 3.44113,-2.0229 5.55777,-5.5578 -8.11567,-10.5249 -14.27292,-5.1848 -3.21,2.7839 -1.70091,6.0088 3.37074,7.2033 1.85859,0.4377 3.97856,0.6178 4.71105,0.4001 0.73248,-0.2176 1.96998,-0.3957 2.75,-0.3957 z m 100.57178,-1.8637 c 4.12357,-4.0805 -3.07647,-8.8452 -10.75061,-7.1144 -4.81727,1.0865 -6.5364,3.6432 -4.55241,6.7705 2.09299,3.2992 12.08954,3.5238 15.30302,0.3439 z m -150.15357,-31.1363 c 0,-4.3333 -0.26667,-5 -2,-5 -1.54771,0 -2,-0.6667 -2,-2.948 0,-2.861 0.0913,-2.9161 3.09313,-1.8697 4.26735,1.4876 13.25554,0.3834 17.31849,-2.1277 4.1003,-2.5341 6.58838,-7.4418 6.58838,-12.9956 0,-10.0151 -7.92031,-16.8124 -18.26325,-15.6737 -2.88021,0.3171 -10.52425,0.55 -16.98675,0.5175 l -11.75,-0.059 v 5.078 c 0,3.8472 0.36359,5.0781 1.5,5.0781 1.25258,0 1.5,2.0426 1.5,12.3834 0,11.3648 -0.15772,12.4246 -1.91754,12.8848 -1.85695,0.4856 -2.01284,1.5651 -1.22486,8.4818 0.10511,0.9226 3.28502,1.25 12.1424,1.25 h 12 z m -2.34703,-19.463 c -2.69046,-2.0384 -2.62016,-8.0143 0.12659,-10.761 1.80595,-1.806 2.64993,-2.0119 4.94885,-1.2077 2.41524,0.845 2.81014,1.5623 3.07143,5.5794 0.44375,6.8223 -3.49658,9.9126 -8.14687,6.3893 z m 62.57478,10.2766 c 3.93027,-1.1775 9.77225,-5.7177 9.77225,-7.5946 0,-0.5382 -2.8125,-1.1989 -6.25,-1.4681 -5.26836,-0.4127 -6.5947,-0.1768 -8.44464,1.5021 -1.48461,1.3473 -2.9659,1.798 -4.57856,1.3933 -2.44091,-0.6126 -5.20714,-5.0601 -4.18049,-6.7212 0.31445,-0.5088 5.94517,-0.9251 12.51271,-0.9251 13.00953,0 12.67757,0.1906 10.76831,-6.182 -4.03877,-13.4802 -28.13355,-16.091 -36.38839,-3.9429 -4.14119,6.0943 -3.04184,15.5543 2.37752,20.4588 4.53065,4.1002 16.5987,5.8204 24.41129,3.4797 z m -13.60775,-18.6194 c -0.92435,-1.4957 1.91347,-5.6918 4.05848,-6.0011 2.15405,-0.3106 5.32152,2.9806 5.32152,5.5294 0,1.4258 -8.52535,1.8545 -9.38,0.4717 z m 103.23078,18.708 c 2.9288,-1.021 3.14922,-1.4262 3.14922,-5.7894 0,-4.461 -0.13517,-4.6897 -2.75,-4.6522 -2.61828,0.037 -2.76448,-0.2121 -3.05226,-5.2106 l -0.30226,-5.25 h 3.05226 c 2.99605,0 3.05226,-0.092 3.05226,-5 0,-4.8717 -0.0758,-5 -2.95431,-5 -2.93128,0 -2.95661,-0.049 -3.25,-6.3514 l -0.29569,-6.3515 -8.21601,3.9767 c -6.61937,3.2039 -8.17404,4.3757 -8,6.0296 0.13989,1.3294 -0.50734,2.2544 -1.83659,2.6247 -1.69532,0.4724 -2.0582,1.3987 -2.08473,5.3219 -0.0258,3.813 0.30257,4.75 1.66466,4.75 1.3879,0 1.82339,1.3969 2.39211,7.6729 0.38242,4.2202 1.1308,8.4867 1.66307,9.4813 2.29793,4.2937 10.96091,6.121 17.76827,3.748 z m 40.64592,-0.023 c 5.28722,-1.4678 12.46343,-8.5779 12.61403,-12.4977 0.3281,-8.5415 -2.24,-13.2337 -9.11073,-16.6464 -6.53488,-3.2459 -19.79894,-3.2105 -25.51718,0.068 -5.85877,3.3592 -8.48282,7.7045 -8.48282,14.0473 0,4.6617 0.40546,5.6596 3.75,9.2293 2.0625,2.2013 5.55,4.6391 7.75,5.4173 4.84786,1.7149 13.56423,1.8902 18.9967,0.3821 z m -12.94,-10.1018 c -4.82078,-6.8826 2.34791,-16.9603 7.78831,-10.9488 3.64428,4.0269 0.97482,13.1713 -3.84501,13.1713 -1.33262,0 -3.07407,-0.9815 -3.9433,-2.2225 z m 141.69329,10.1699 c 3.6598,-1.0164 3.75,-1.1555 3.75,-5.7838 0,-4.5165 -0.131,-4.7406 -2.75,-4.703 -2.6183,0.037 -2.7645,-0.2121 -3.0523,-5.2106 l -0.3022,-5.25 h 3.0522 c 2.9961,0 3.0523,-0.092 3.0523,-5 0,-4.8889 -0.067,-5 -3,-5 h -3 v -6.4347 -6.4348 l -8.25,3.8142 c -6.9239,3.2011 -8.2525,4.1953 -8.2655,6.1848 -0.011,1.6294 -0.6636,2.4638 -2.0886,2.6689 -1.7688,0.2546 -2.0817,1.0255 -2.1314,5.25 -0.048,4.0807 0.2512,4.9516 1.7007,4.9516 1.4653,0 1.875,1.2808 2.4542,7.6729 0.3825,4.2202 1.1308,8.4867 1.6631,9.4813 2.2951,4.2884 9.5847,5.8991 17.1675,3.7932 z m -445.24999,-5.4473 c 0,-4.8333 -0.24242,-5.5 -2,-5.5 -1.88406,0 -2,-0.6667 -2,-11.5 0,-10.8333 0.11594,-11.5 2,-11.5 1.75758,0 2,-0.6667 2,-5.5 v -5.5 h -13 -13 v 5.5 c 0,4.8333 0.24242,5.5 2,5.5 1.88406,0 2,0.6667 2,11.5 0,10.8333 -0.11594,11.5 -2,11.5 -1.75758,0 -2,0.6667 -2,5.5 v 5.5 h 13 13 z m 30,0.5696 c 0,-4.3518 -0.26411,-4.968 -2.25,-5.25 -1.2375,-0.1758 -2.1375,-0.6571 -2,-1.0696 0.1375,-0.4125 0.25,-2.5414 0.25,-4.7309 0,-3.4179 0.35546,-4.0702 2.51299,-4.6117 4.51377,-1.1329 5.48701,0.8563 5.48701,11.215 v 9.3776 h 10 10 v -5 c 0,-4.3333 -0.26667,-5 -2,-5 -1.82185,0 -2,-0.6667 -2,-7.4842 0,-6.7519 -0.26909,-7.7854 -2.75,-10.5618 -3.62744,-4.0594 -9.408,-4.9292 -16.00812,-2.4086 -4.56677,1.7441 -6.02313,1.7983 -5.49188,0.2046 0.1375,-0.4125 -4.475,-0.75 -10.25,-0.75 h -10.5 v 5 c 0,4.3333 0.26667,5 2,5 1.75758,0 2,0.6667 2,5.5 0,4.8333 -0.24242,5.5 -2,5.5 -1.73333,0 -2,0.6667 -2,5 v 5 h 12.5 12.5 z m 41.47638,3.9686 c 0.38054,-0.6157 1.50466,-0.6157 3.12412,0 5.93774,2.2575 17.3125,-0.1386 19.42867,-4.0927 1.57939,-2.9511 1.11437,-7.4933 -1.04868,-10.2432 -1.59488,-2.0275 -4.02113,-3.0299 -11.53922,-4.7672 -5.77806,-1.3352 -9.37572,-2.6391 -9.15337,-3.3174 0.5859,-1.7876 5.46135,-1.8893 8.87719,-0.1852 1.7282,0.8621 5.09805,1.5675 7.48855,1.5675 h 4.34636 v -4.5338 -4.5338 l -6.25,-0.099 c -3.4375,-0.055 -9.25533,-0.152 -12.92851,-0.2163 -7.96738,-0.1392 -11.87191,2.086 -12.95534,7.3834 -1.34443,6.5735 1.74009,9.402 14.00883,12.8462 8.13929,2.2849 8.62121,2.5418 7.66614,4.0872 -0.9357,1.514 -6.58321,1.2574 -9.54112,-0.4335 -1.375,-0.786 -4.6375,-1.4451 -7.25,-1.4646 l -4.75,-0.036 v 4.5 4.5 h 4.94098 c 2.71754,0 5.20847,-0.4328 5.5354,-0.9618 z m 151.55688,-5.7882 0.0332,-6.75 6.4581,6.75 6.4581,6.75 h 6.00869 6.00865 v -5 c 0,-4.1521 -0.3059,-5 -1.80383,-5 -0.99211,0 -3.24557,-1.4875 -5.00769,-3.3055 l -3.20386,-3.3056 2.81241,-2.6944 c 1.54682,-1.482 3.52714,-2.6945 4.4007,-2.6945 1.87202,0 2.80227,-2.0305 2.80227,-6.1168 v -2.9532 l -10.25,0.285 -10.25,0.285 -0.0641,3.25 c -0.0601,3.0425 0.84064,3.8379 3.81414,3.3684 1.75302,-0.2768 0.46243,1.7474 -3.75,5.8816 l -4.5,4.4164 v -15.7082 -15.7082 h -10 -10 v 5 c 0,4.3333 0.26667,5 2,5 1.89333,0 2,0.6667 2,12.5 0,11.8333 -0.10667,12.5 -2,12.5 -1.73333,0 -2,0.6667 -2,5 v 5 h 10 10 z m 137.96673,1.75 c 0,-4.3333 -0.2667,-5 -2,-5 -1.4611,0 -2,-0.6667 -2,-2.4743 0,-2.9954 4.258,-5.5257 9.2988,-5.5257 h 3.3981 l 0.2084,-7.1393 0.2085,-7.1393 -4.3069,0.5681 c -3.3526,0.4423 -5.027,1.3964 -7.5569,4.3059 l -3.25,3.7378 v -3.6666 -3.6666 h -9.49996 -9.5 v 5 c 0,4.3333 0.2666,5 2,5 1.7575,0 2,0.6667 2,5.5 0,4.8333 -0.2425,5.5 -2,5.5 -1.7334,0 -2,0.6667 -2,5 v 5 h 12.49997 12.49999 z m 33.7566,4.0698 c 2,-0.5736 3.2434,-0.5736 3.2434,0 0,0.5116 4.5,0.9302 10,0.9302 h 10 v -5 c 0,-4.3333 -0.2667,-5 -2,-5 -1.7928,0 -2,-0.6667 -2,-6.4349 0,-12.8072 -2.8367,-14.9946 -19.5,-15.0371 -6.05,-0.015 -12.134,0.2921 -13.5199,0.6833 -2.663,0.7517 -6.9801,4.2847 -6.9801,5.7124 0,0.4652 2.4667,1.154 5.4815,1.5307 4.2064,0.5256 6.0029,0.3198 7.7225,-0.8848 4.4758,-3.1349 10.796,-0.8619 10.796,3.8828 0,2.014 -0.392,2.1174 -6.5435,1.7257 -7.5873,-0.4831 -14.8073,1.7404 -16.6142,5.1165 -1.4831,2.7713 -1.3139,7.4323 0.3424,9.428 3.1661,3.8148 12.4219,5.3978 19.5719,3.3472 z m -4.7109,-6.5148 c -1.5538,-1.8721 -0.9865,-5.5746 1.0495,-6.8501 0.8774,-0.5497 2.7899,-0.6996 4.25,-0.3331 2.2168,0.5564 2.6548,1.2229 2.6548,4.0403 0,3.4152 -1.2676,4.5879 -4.9593,4.5879 -0.9877,0 -2.3355,-0.6502 -2.995,-1.445 z m 618.4543,266.2216 c -2.2,-1.1152 -4.1471,-2.1558 -4.327,-2.3124 -0.1798,-0.1566 2.5847,-5.7132 6.1434,-12.3481 l 6.4703,-12.0632 -6.1433,-3.4074 c -3.3789,-1.874 -13.5684,-7.3345 -22.6434,-12.1343 -21.7017,-11.4782 -35.4233,-18.7884 -35.8235,-19.085 -0.1779,-0.1319 0.9675,-2.5001 2.5453,-5.2628 l 2.8687,-5.0229 31.4548,16.8889 c 17.3001,9.2888 31.9593,16.9072 32.576,16.9297 0.6167,0.023 3.4744,-4.4349 6.3504,-9.9053 7.544,-14.3493 6.8494,-13.6959 11.8473,-11.1462 2.2995,1.1732 4.181,2.366 4.181,2.6506 0,0.8633 -30.1778,57.4338 -30.8628,57.8546 -0.3504,0.2153 -2.4372,-0.521 -4.6372,-1.6362 z m -1529.38332,-15.356 c -7.7023,-2.0715 -15.9237,-7.8986 -20.3459,-14.4206 -6.03611,-8.9022 -8.113306,-15.2425 -8.197406,-25.021 -0.066,-7.6728 0.2503,-9.1785 3.177906,-15.1253 10.0779,-20.4712 37.7546,-32.4462 57.5333,-24.8931 12.632,4.8239 23.9519,19.8965 25.3628,33.771 1.7224,16.9379 -7.7861,32.5328 -25.1327,41.2203 -11.6352,5.8271 -22.0207,7.2596 -32.398,4.4687 z m 21.3833,-12.6228 c 11.2666,-4.3617 20.103,-11.5026 23.5023,-18.9927 2.6238,-5.7815 2.6606,-16.7485 0.075,-22.4421 -7.115,-15.6688 -24.0799,-20.6135 -41.3715,-12.0585 -14.2363,7.0434 -20.6356,14.9781 -21.4685,26.6199 -0.4199,5.8688 -0.115,7.5986 2.2807,12.9369 6.6919,14.9117 20.7645,20.2149 36.9817,13.9365 z m 1452.61632,-65.5201 -3.3837,-1.3925 0.5251,-5.6926 c 1.3171,-14.2803 10.7828,-19.0825 23.0424,-11.69 l 5.8001,3.4974 h 12.8364 12.8365 l 5.6418,-13.6889 c 7.8511,-19.0495 7.7522,-17.4682 1.4435,-23.0609 -2.9471,-2.6126 -7.3425,-6.5938 -9.7674,-8.8472 l -4.4091,-4.097 2.3007,-5.5508 2.3007,-5.5508 29.1083,27.032 c 16.0096,14.8676 30.7962,28.666 32.859,30.6631 l 3.7506,3.6311 -2.2506,5.7327 -2.2506,5.7327 h -45.357 c -48.5473,0 -45.4858,0.3155 -43.5517,-4.4572 0.8025,-1.9801 -5.1651,-5.5322 -9.3023,-5.5371 -2.0131,0 -3.9671,0.8078 -5.2376,2.1715 -1.8301,1.9644 -2.4393,3.8969 -3.2817,10.41 -0.2544,1.9672 -0.4611,2.0063 -3.6534,0.6925 z m 98.7857,-16.4636 c -2.4189,-1.7523 -9.3994,-7.799 -15.5122,-13.4371 l -11.1142,-10.2512 -4.7594,11.6871 c -2.6177,6.4279 -4.9735,12.2382 -5.2351,12.9119 -0.3607,0.9285 3.478,1.2977 15.8716,1.5265 8.991,0.166 18.3273,0.4024 20.7473,0.5253 l 4.4001,0.2234 z m -1614.577827,6.7464 c -12.5515,-3.9246 -22.797003,-16.3076 -26.909903,-32.5242 -2.7016,-10.6516 -1.0656,-18.6841 5.4661,-26.8385 5.4512,-6.8055 6.8293,-7.1394 10.655503,-2.582 l 3.2315,3.8491 -4.3521,4.8405 c -2.605503,2.898 -4.617403,6.2553 -5.013403,8.366 -2.2824,12.166 4.747603,26.79 15.596703,32.4449 3.5449,1.8477 5.9203,2.2729 12.441401,2.2274 14.889006,-0.104 28.947606,-7.6321 34.800106,-18.6347 3.3335,-6.2669 3.1448,-18.1448 -0.4103,-25.829 -2.7303,-5.9013 -8.1295,-12.5331 -13.0651,-16.0475 l -2.9278,-2.0848 -6.9184,2.7851 c -3.8052,1.5319 -6.91851,3.1846 -6.91851,3.6728 0,0.4881 1.99451,5.6207 4.43221,11.4056 l 4.4323,10.518 -4.5971,1.9705 c -2.5284,1.0838 -4.90321,1.6173 -5.277406,1.1854 -1.1618,-1.341 -13.411001,-32.2018 -12.937401,-32.5949 0.2461,-0.2043 6.8867,-2.9282 14.756907,-6.053 l 14.3094,-5.6816 5.7214,4.0134 c 19.9785,14.0141 28.2959,39.8766 18.9224,58.8384 -4.9262,9.9652 -17.4148,19.3041 -30.3042,22.6614 -7.075,1.8428 -19.390407,1.8877 -25.134307,0.092 z M 1723.7122,1169.9732 c -4.0732,-1.5266 -4.9993,-2.5881 -11.0437,-12.6578 -3.6287,-6.0453 -13.0546,-21.7462 -20.9465,-34.8908 l -14.3489,-23.8992 -2.4301,6.3992 c -1.3365,3.5196 -5.3599,14.4993 -8.9408,24.3993 -3.5809,9.9 -6.6421,18.1313 -6.8026,18.2918 -0.2528,0.2529 -8.4878,-2.7007 -9.3611,-3.3575 -0.1759,-0.1322 4.7696,-14.2301 10.9898,-31.3286 12.4747,-34.2907 11.0208,-32.084 18.6193,-28.2608 2.695,1.356 6.8964,7.5807 23.25,34.4467 10.9783,18.0354 19.9606,33.2229 19.9606,33.75 0,3.7704 2.5413,-1.7467 8.8863,-19.2916 4.0278,-11.1375 7.6879,-20.6393 8.1336,-21.1151 0.4503,-0.4808 2.8686,-0.079 5.4431,0.9041 3.5484,1.3552 4.4734,2.1428 3.952,3.3651 -0.3744,0.8778 -4.9477,13.2959 -10.1629,27.5959 -5.2152,14.3 -9.7679,26.296 -10.1172,26.6578 -0.3492,0.3618 -2.6356,-0.092 -5.0809,-1.0085 z M 56.65817,1122.3962 c -12.8553,-3.5677 -22.5974,-13.4998 -26.5382,-27.0559 -2.6064,-8.9657 -1.7194,-21.5021 2.0483,-28.9488 7.1125,-14.0575 24.2587,-23.5272 42.650803,-23.5557 16.8651,-0.026 28.424407,6.918 35.769607,21.4881 10.4524,20.7335 2.7984,43.1485 -18.269107,53.5017 -12.0251,5.9095 -24.893903,7.5589 -35.661403,4.5706 z m 27.690803,-13.5783 c 12.168601,-4.2017 20.279507,-14.642 20.299507,-26.1292 0.036,-20.8335 -16.471907,-32.1352 -39.21851,-26.8498 -20.4398,4.7494 -30.4734,19.639 -25.3084,37.5569 1.3566,4.7062 2.7748,6.9661 6.8804,10.9639 2.8443,2.7697 6.7431,5.567 8.6639,6.2161 5.2926,1.7886 21.243303,0.8111 28.683103,-1.7579 z m -64.690803,-8.8528 c -4.125,-0.9026 -7.9863,-1.9582 -8.5806,-2.3456 -1.1330997,-0.7385 -3.9151997,-11.6331 -3.1628997,-12.3854 0.2391,-0.2391 4.5078997,1.4206 9.4862997,3.6882 7.5215,3.4261 9.1416,4.5691 9.5843,6.7623 0.2931,1.4516 0.8375,3.4268 1.2099,4.3893 0.7812,2.0194 1.2135,2.025 -8.537,-0.1088 z m 1711.99353,-13.0755 c -5.1982,-1.5813 -9.1268,-4.267 -11.9575,-8.1747 -2.937,-4.0545 -5.6821,-13.7648 -4.651,-16.452 0.7712,-2.0096 -0.028,-1.806 -3.7017,0.9429 -1.7508,1.3101 -4.6109,3.1036 -6.3557,3.9856 -4.3242,2.1858 -32.5379,11.7555 -33.0749,11.2185 -0.5174,-0.5174 1.7426,-10.9603 2.7111,-12.5274 0.3749,-0.6066 7.7072,-3.5413 16.294,-6.5215 17.9368,-6.2253 20.251,-7.3086 23.9226,-11.1978 2.3487,-2.4881 6.8196,-15.5403 6.8196,-19.9092 0,-0.7134 -6.937,-2.9086 -17.25,-5.4586 -9.4875,-2.346 -17.4347,-4.4215 -17.6605,-4.6123 -0.2258,-0.1908 0.1482,-2.8434 0.831,-5.8947 0.9888,-4.4183 1.5814,-5.446 2.9105,-5.0474 0.918,0.2754 19.219,4.8408 40.669,10.1453 21.45,5.3046 39.1252,9.7609 39.2783,9.9028 0.8011,0.7428 -11.0241,44.0863 -13.1986,48.3774 -4.8573,9.5855 -15.5502,14.2759 -25.5862,11.2231 z m 12.708,-13.0252 c 1.7607,-1.0736 3.929,-3.3592 4.8184,-5.0789 1.6545,-3.1996 8.454,-28.1535 8.4708,-31.0878 0.01,-1.2506 -2.9073,-2.3566 -12.6187,-4.7886 -6.9454,-1.7394 -12.749,-3.0326 -12.8969,-2.8738 -0.9987,1.0725 -6.8237,28.1618 -6.8398,31.8088 -0.048,10.8595 10.2855,17.3742 19.0662,12.0203 z m -481.2015,-3.9743 c -8.5314,-1.6473 -21.829,-5.9282 -29.5,-9.4968 -10.1608,-4.727 -19.1755,-11.5473 -30.6799,-23.2118 -11.1538,-11.3088 -16.3798,-18.7884 -23.6564,-33.8577 -9.6489,-19.98187 -14.4253,-36.96117 -17.441,-61.99997 -1.3833,-11.4849 -0.6658,-49.2713 1.1488,-60.5 2.0933,-12.953 5.3482,-29.0066 7.0965,-35 0.722,-2.475 2.0859,-7.2 3.0309,-10.5 5.764,-20.1278 19.8021,-52.51292 29.1596,-67.26939 1.8378,-2.89818 3.3415,-5.50501 3.3415,-5.79297 0,-0.58189 7.1259,-11.80364 9.4855,-14.93761 0.8282,-1.1 4.3251,-5.825 7.7708,-10.5 3.4456,-4.675 7.6101,-10.03689 9.2543,-11.91531 12.4174,-14.18645 24.464,-26.1356 35.4894,-35.20249 3.575,-2.93994 6.725,-5.61146 7,-5.93671 0.275,-0.32526 1.175,-0.89599 2,-1.2683 0.825,-0.37231 3.525,-2.23346 6,-4.13589 4.9988,-3.84233 25.4952,-15.52471 32.8002,-18.69519 7.1864,-3.11898 23.838,-8.8225 29.0474,-9.94933 13.2374,-2.86332 16.8964,-3.23726 31.6524,-3.23469 13.0615,0.002 17.579,0.39912 24.5973,2.16083 23.7628,5.9648 41.4056,16.27996 57.9927,33.90625 10.7683,11.443 21.7188,29.76568 28.2512,47.27083 2.975,7.97234 8.1993,28.91259 9.8781,39.59362 1.8869,12.00628 1.5432,56.31865 -0.5346,68.90635 -3.1809,19.2704 -7.4614,38.7117 -9.1113,41.3812 -0.3644,0.5896 -0.826,2.32 -1.0258,3.8454 -0.8492,6.4827 -12.5959,35.189 -21.595,52.7734 -8.0447,15.7196 -9.5829,18.3437 -17.878,30.5 -15.5003,22.7154 -33.1006,42.92647 -49.0681,56.34657 -4.6786,3.9322 -8.7315,7.3779 -9.0065,7.6571 -0.275,0.2793 -2.975,2.3241 -6,4.5441 -39.1223,28.7113 -83.3746,41.4939 -119.5,34.5185 z M 16.28317,1029.6989 c -1.1637,-5.8184 -0.7755,-7.8048 1.625,-8.3162 1.2375,-0.2636 17.3215,-2.5562 35.7422,-5.0946 18.4207,-2.5384 33.651103,-4.7741 33.845203,-4.9682 0.1941,-0.1942 -0.8727,-9.1774 -2.3707,-19.96267 -1.498,-10.7854 -2.5178,-19.8156 -2.2661,-20.0672 0.2516,-0.2517 2.4974,-0.7372 4.9907,-1.0789 4.1796,-0.5729 4.5764,-0.4367 5.0872,1.7457 1.2179,5.2035 6.957201,48.96467 6.483901,49.43807 -0.5504,0.5504 -76.899804,11.3919 -80.387404,11.415 -1.5846,0.01 -2.2839,-0.7806 -2.75,-3.111 z M 1765.211,995.90933 c -0.3109,-0.5031 0.3375,-11.0849 1.441,-23.5153 1.1034,-12.4304 2.0062,-23.2255 2.0062,-23.9892 0,-1.047 -2.644,-1.593 -10.75,-2.2199 -5.9125,-0.4572 -11.425,-0.838 -12.25,-0.8462 -1.2307,-0.012 -1.859,4.0239 -3.5,22.4851 l -2,22.5 -4.7281,-0.062 c -2.6005,-0.034 -4.9417,-0.2749 -5.2026,-0.5358 -0.2609,-0.2609 0.4105,-10.5396 1.4919,-22.8415 1.0815,-12.3018 1.8476,-22.4704 1.7026,-22.5969 -0.434,-0.3781 -26.9837,-2.5848 -27.216,-2.262 -0.1178,0.1637 -1.209,11.5299 -2.4248,25.2581 -1.2158,13.7283 -2.3423,25.0922 -2.5034,25.2533 -0.161,0.1611 -2.3913,0 -4.9562,-0.3464 -4.4168,-0.6053 -4.6633,-0.8038 -4.6608,-3.7532 0,-3.9329 4.8542,-58.8259 5.2237,-59.112 0.4141,-0.3206 78.9222,6.4811 81.6212,7.0715 1.8185,0.3977 2.233,1.0107 1.8393,2.7199 -0.2794,1.2136 -1.5473,14.694 -2.8173,29.9565 l -2.3093,27.75 h -4.7211 c -2.5966,0 -4.9754,-0.4116 -5.2863,-0.9146 z m -1329.05279,-6.1162 c -12.5927,-0.9508 -36.50304,-6.639 -39.18632,-9.3223 -0.35586,-0.3558 -1.30044,-0.647 -2.09908,-0.647 -2.22647,0 -28.01953,-12.8049 -30.2146,-15 -1.62626,-1.6262 -10.00428,-7 -10.91348,-7 -0.59758,0 -1.08652,-0.45 -1.08652,-1 0,-0.55 -0.44222,-1 -0.98272,-1 -0.54049,0 -2.22799,-1.1021 -3.75,-2.4493 -1.522,-1.3471 -6.14228,-5.2734 -10.26728,-8.7251 -9.04653,-7.57 -19.90563,-18.4028 -27.63383,-27.5668 -3.1348,-3.7173 -5.9715,-6.9838 -6.3037,-7.2588 -3.376,-2.7947 -22.9911,-32.0296 -28.1798,-42 -1.8605,-3.575 -3.615,-6.725 -3.899,-7 -1.0212,-0.9888 -8.7694,-17.6605 -12.7806,-27.5 -5.1496,-12.6318 -12.3764,-33.6547 -12.7191,-37 -0.056,-0.55 -0.4928,-2.12497 -0.9698,-3.49997 -0.4771,-1.375 -0.99,-3.175 -1.1397,-4 -0.1498,-0.825 -1.2232,-6.225 -2.3855,-12 -4.4273,-21.99901 -5.4552,-32.35695 -5.4583,-55 0,-26.11845 1.9393,-41.2152 8.1081,-63 7.0035,-24.73279 20.7949,-48.35227 38.0381,-65.14487 26.4179,-25.72756 64.11289,-36.14326 102.82313,-28.41157 15.98136,3.19199 31.18177,8.5129 43.07679,15.07905 3.80777,2.10191 7.82321,4.31449 8.92321,4.91684 17.83203,9.76459 46.45486,34.1452 59.97189,51.08338 2.18453,2.73744 5.33453,6.59412 7,8.57039 5.68517,6.74613 6.76255,8.20521 13.51412,18.30196 13.39815,20.03649 23.76816,39.84961 31.98173,61.10482 2.33788,6.05 4.59432,11.68977 5.01432,12.53282 0.42,0.84306 1.09781,3.09306 1.50626,5 0.40844,1.90695 1.05602,3.91718 1.43906,4.46718 0.38304,0.55 1.26415,3.475 1.95801,6.5 0.69387,3.025 1.63599,6.625 2.0936,8 0.91353,2.74487 3.66538,14.75467 4.46811,19.5 0.27912,1.65 0.79171,4.29781 1.13909,5.88403 0.34738,1.58621 0.77188,4.06121 0.94335,5.5 3.94276,33.08444 3.45117,61.04154 -1.50676,85.69054 -6.3641,31.64 -20.71577,60.0149 -40.40353,79.8825 -5.01559,5.0613 -10.58175,10.0511 -12.36925,11.0883 -1.7875,1.0372 -3.25,2.2388 -3.25,2.6702 0,0.4315 -0.6375,0.7844 -1.41667,0.7844 -0.77916,0 -1.56666,0.3897 -1.75,0.866 -0.80011,2.0788 -29.84119,14.7256 -34.33333,14.9516 -0.55,0.028 -3.7,0.5093 -7,1.0704 -8.62147,1.4657 -19.64572,1.8631 -30,1.0813 z M 8.1524703,963.43523 c -0.1851,-0.6113 -0.5402,-3.2353 -0.7892,-5.8312 l -0.4526,-4.7198 29.0251997,-23.2802 c 15.9639,-12.8041 29.5066,-23.5932 30.0948,-23.9758 0.5883,-0.3826 0.8576,-0.885 0.5986,-1.1164 -0.2591,-0.2314 -14.4211,0.8095 -31.4711,2.313 -22.5471,1.9884 -31.2072995,2.4291 -31.7604995,1.6164 -0.4183,-0.6145 -0.6433,-3.1424 -0.5,-5.6174 l 0.2605,-4.5 35.9999995,-3.154 c 19.8,-1.7347 38.475003,-3.3097 41.500003,-3.5 l 5.5,-0.346 v 6.0872 6.0871 l -24.000003,19.3214 c -13.2,10.6268 -26.589,21.3485 -29.7535,23.8261 -3.1644,2.4775 -5.6394,4.6071 -5.5,4.7323 0.1395,0.1252 14.4285,-1.0335 31.7535,-2.575 17.325003,-1.5416 31.661103,-2.6438 31.858103,-2.4496 0.1969,0.1943 0.4219,2.7352 0.5,5.6464 l 0.1419,5.2931 -36.500003,3.1687 c -20.075,1.7428 -38.6755,3.3749 -41.3346,3.6268 -3.0497,0.2891 -4.9587997,0.048 -5.1710997,-0.6531 z M 1735.1582,911.27233 c -17.05,-0.6821 -32.6875,-1.2871 -34.75,-1.3444 l -3.75,-0.1041 0.015,-4.75 c 0.01,-2.6125 0.3459,-5.229 0.75,-5.8145 0.8104,-1.1743 82.1367,1.2063 83.4638,2.4432 0.4009,0.3737 0.4508,3.0289 0.1107,5.9004 l -0.6184,5.2209 -7.1107,-0.1556 c -3.9109,-0.086 -21.0607,-0.7138 -38.1107,-1.3959 z m 7,-38.4819 c -21.45,-4.3459 -39.97,-8.1391 -41.1555,-8.4294 -1.724,-0.4222 -2.2951,-1.5426 -2.8527,-5.5965 -0.3834,-2.7878 -0.465,-5.3008 -0.1813,-5.5845 0.2837,-0.2837 16.1924,-6.0866 35.3526,-12.8954 19.1603,-6.8088 34.3869,-12.4134 33.8369,-12.4547 -0.55,-0.041 -16.975,-3.3508 -36.5,-7.3544 l -35.5,-7.2793 -0.2932,-6.0134 -0.2933,-6.0135 7.7933,-2.5987 c 4.2862,-1.4293 22.5447,-7.64309 40.5743,-13.80836 18.0296,-6.16527 32.9465,-11.03607 33.1486,-10.824 0.2022,0.21208 0.5257,2.84767 0.719,5.85689 l 0.3513,5.4713 -26.5,8.18168 c -14.575,4.49989 -29.875,9.19919 -34,10.44269 l -7.5,2.261 5,0.8841 c 9.0943,1.608 61.9687,12.6466 63.629,13.2838 1.6303,0.6257 2.8391,5.2897 2.86,11.0345 0.013,3.4542 0.8417,3.1073 -44.1032,18.4508 l -22.6142,7.7201 19.6142,3.3019 c 10.7878,1.8161 26.3642,4.4714 34.6142,5.9008 l 15,2.5988 0.2999,5.7486 c 0.2206,4.2285 -0.044,5.7312 -1,5.6826 -0.7149,-0.036 -18.8499,-3.6216 -40.2999,-7.9674 z M 36.86687,871.29873 c -14.4751,-3.1432 -25.8237,-11.863 -30.4019997,-23.3597 -3.2148998,-8.0729 -3.1910998,-23.2137 0.049,-31.3618 8.7855997,-22.0924 37.2205997,-30.83948 62.5656997,-19.2464 14.968103,6.8466 23.715803,24.4026 20.756903,41.6577 -4.183,24.3934 -26.562603,38.0444 -52.969803,32.3102 z m 22.0451,-11.8601 c 11.2812,-2.6547 18.566103,-9.939 20.678703,-20.6769 2.6922,-13.6843 -3.2617,-25.6572 -15.437203,-31.043 -6.7767,-2.9976 -17.617,-4.2531 -25.2483,-2.9242 -3.6285,0.6319 -8.0137,1.7407 -9.7449,2.464 -14.1953,5.9312 -19.7552997,26.5505 -10.8512,40.2418 6.7789,10.4235 24.6769,15.686 40.6029,11.9383 z m 32.246203,-77.2095 c -0.55,-0.18961 -18.1,-3.30468 -39.000003,-6.92239 -20.9,-3.61771 -38.9274,-6.89383 -40.0608,-7.28027 -2.0473,-0.69797 -2.0364,-0.83599 1.6565,-20.90852 4.9882,-27.11345 8.0628,-33.34383 18.4088,-37.30328 3.8672,-1.47999 11.8797,-1.53052 17.1058,-0.10788 5.0668,1.37929 12.523,7.78448 14.9479,12.84078 2.4183,5.04267 2.2417,16.42427 -0.4767,30.71747 -1.3968,7.34441 -1.7391,11.15241 -1.0411,11.58374 0.5718,0.35341 6.9841,1.65931 14.249603,2.90199 19.848601,3.39487 17.9757,2.47388 17.1845,8.45065 -0.7108,5.36927 -1.3176,6.5989 -2.9745,6.02771 z M 53.03077,753.07386 c 2.8296,-15.90157 3.0285,-21.22878 0.9428,-25.25 -2.2115,-4.26374 -7.3324,-6.99636 -13.115,-6.99845 -7.5265,-0.003 -11.714,3.4724 -13.5856,11.27437 -1.6125,6.72205 -4.5055,25.169 -4.0259,25.671 0.5646,0.59099 22.5153,4.77141 25.9799,4.94777 1.8471,0.094 2.2547,-0.93953 3.8038,-9.64469 z m 1638.19333,20.60477 c -0.6577,-2.95168 -3.5066,-19.02144 -7.5086,-42.35477 -1.698,-9.9 -3.2566,-18.76124 -3.4634,-19.69165 -0.3039,-1.36661 0.6536,-1.8203 4.983,-2.36123 5.2859,-0.66042 5.5615,-0.5601 20.1411,7.33203 28.109,15.21564 53.7503,29.36457 54.8108,30.24472 0.5855,0.48595 -0.6361,-8.65813 -2.7147,-20.32016 -2.0786,-11.66204 -3.7871,-21.94012 -3.7967,-22.84017 -0.013,-1.18182 1.2582,-1.82775 4.5743,-2.32501 2.5254,-0.37871 4.7997,-0.4805 5.054,-0.22621 0.8426,0.84266 10.6137,57.76164 10.0179,58.35738 -0.3214,0.32139 -2.5147,0.94117 -4.874,1.37729 -4.9287,0.91106 -0.9172,2.86165 -47.1446,-22.9241 -23.9536,-13.36143 -28.7636,-15.71552 -28.3176,-13.85913 0.2955,1.22993 2.4003,12.76452 4.6774,25.63242 4.3012,24.30602 4.3011,25.01901 0,25.10216 -0.825,0.0159 -2.4921,0.29497 -3.7047,0.62009 -1.7392,0.46632 -2.3154,0.094 -2.7294,-1.76366 z m -658.5659,-73.79391 c -16.7523,-2.36816 -37.60976,-11.38557 -49.87056,-21.56086 -10.94629,-9.08438 -28.12943,-28.66327 -28.12943,-32.05139 0,-0.79674 -0.37914,-1.44861 -0.84253,-1.44861 -0.46339,0 -1.70089,-1.6875 -2.75,-3.75 -1.04911,-2.0625 -2.15152,-3.975 -2.44981,-4.25 -2.31119,-2.13076 -12.75176,-27.72925 -15.93928,-39.0804 -11.3261,-40.3335 -13.41239,-81.07274 -6.56369,-128.1696 0.29992,-2.0625 0.75527,-5.2125 1.0119,-7 0.62383,-4.34531 2.06897,-11.3655 4.58026,-22.25 1.14207,-4.95 2.29198,-10.125 2.55534,-11.5 0.26337,-1.375 1.89452,-7 3.62478,-12.5 1.73026,-5.5 3.24451,-10.45 3.36501,-11 1.3109,-5.98346 17.5007,-44.82802 22.85166,-54.82853 10.89579,-20.36334 21.59539,-37.04475 34.50776,-53.79999 6.66979,-8.65467 30.25289,-32.88992 37.88789,-38.93552 2.3866,-1.88978 4.8616,-3.89681 5.5,-4.46007 3.7198,-3.28202 16.2811,-11.72918 23.1607,-15.57507 8.68,-4.85233 24.5074,-11.90082 26.7234,-11.90082 0.7571,0 1.8041,-0.39886 2.3266,-0.88636 1.346,-1.25583 17.6726,-4.83653 27.779,-6.09239 15.4819,-1.92386 37.1466,2.21396 55.171,10.53734 3.3,1.52388 6.225,3.03538 6.5,3.35888 0.275,0.32351 3.0477,2.25259 6.1616,4.28686 5.544,3.62188 18.4806,14.93798 20.2147,17.68263 0.482,0.76282 2.3415,3.01282 4.1322,5 13.2767,14.73342 27.5234,44.29485 33.8776,70.29527 5.5587,22.74501 7.6651,39.83191 8.1137,65.81777 0.4233,24.51815 -3.7228,62.98228 -8.9466,83 -0.7893,3.025 -2.1509,8.425 -3.0257,12 -2.709,11.07099 -6.5026,22.90846 -12.1781,38 -6.1264,16.29075 -16.0847,38.98035 -17.7751,40.5 -0.6118,0.55 -1.9997,3.025 -3.0842,5.5 -3.2799,7.48474 -15.8759,27.50157 -25.4149,40.38775 -10.5508,14.25307 -26.9919,32.67962 -33.5279,37.57681 -2.459,1.84247 -4.2366,3.72918 -3.9501,4.19269 0.2865,0.46351 -0.1432,0.84275 -0.9548,0.84275 -0.8117,0 -1.6257,0.3559 -1.8091,0.79089 -0.6545,1.55293 -12.7466,11.0255 -20.9685,16.42603 -11.047,7.2562 -30.4566,17.07158 -36.3648,18.38961 -1.65,0.36808 -3.45,1.00315 -4,1.41126 -0.55,0.4081 -5.275,1.74685 -10.5,2.975 -10.3368,2.42969 -31.0508,3.47452 -41,2.06807 z M 68.17037,698.27537 c -15.1362,-3.82503 -26.8989,-12.64137 -32.3321,-24.23344 -2.3499,-5.01366 -2.6801,-6.95669 -2.6801,-15.77249 0,-9.57543 0.1757,-10.40912 3.6876,-17.5 9.465,-19.11084 26.4554,-26.53566 48.071503,-21.00719 18.166807,4.64628 29.609507,15.10325 33.418907,30.53993 4.4428,18.00318 -5.0492,37.65297 -22.026106,45.59743 -7.949101,3.71979 -19.096801,4.66097 -28.139704,2.37576 z m 25.987803,-13.19821 c 13.100207,-6.8057 18.566507,-23.42149 12.072107,-36.69558 -3.9956,-8.16668 -12.077907,-13.82015 -24.276407,-16.9811 -11.443703,-2.96536 -19.793703,-1.83365 -27.977303,3.79185 -14.1106,9.69985 -14.5911,34.15563 -0.8568,43.60512 4.4737,3.07796 12.25,6.46369 18.4506,8.03321 6.028203,1.5259 18.075603,0.59066 22.587803,-1.7535 z m 610.000037,1.70888 c -10.82405,-0.85662 -24.04177,-3.8005 -32,-7.12711 -9.74688,-4.07429 -18.05402,-8.19238 -22.18018,-10.99538 -2.29909,-1.56183 -4.45558,-2.83969 -4.7922,-2.83969 -0.33662,0 -1.15554,-0.47131 -1.81983,-1.04736 -0.66428,-0.57605 -3.68279,-2.8722 -6.70779,-5.10255 -21.69974,-15.99938 -39.35292,-35.99842 -57.68463,-65.35009 -15.42493,-24.69749 -30.34787,-59.18899 -36.77573,-85 -0.95878,-3.85 -2.12349,-7.9 -2.58824,-9 -0.80915,-1.91517 -2.5874,-9.92477 -5.55038,-25 -0.7567,-3.85 -2.02842,-12.175 -2.82603,-18.5 -0.79762,-6.325 -1.74358,-13.75 -2.10214,-16.5 -0.35856,-2.75 -0.86894,-16.025 -1.13418,-29.5 -0.40292,-20.46991 -0.14123,-27.54313 1.59091,-43 1.14024,-10.175 2.52522,-20.525 3.07774,-23 5.50181,-24.64525 7.9241,-33.72282 10.58063,-39.65113 0.77663,-1.73312 1.41205,-3.61633 1.41205,-4.1849 0,-0.84201 0.92629,-3.44359 2.55073,-7.16397 0.12007,-0.275 0.55638,-1.54547 0.96958,-2.82326 0.4132,-1.27779 3.44456,-7.57779 6.73636,-14 3.29179,-6.42221 6.49319,-12.68573 7.11421,-13.91894 0.62101,-1.23321 1.46662,-2.24571 1.87912,-2.25 0.4125,-0.004 0.75,-0.45676 0.75,-1.00549 0,-1.17351 5.71411,-9.41735 11.43836,-16.50231 18.09971,-22.40217 38.914,-36.44319 63.06471,-42.54253 16.70311,-4.21842 35.60509,-4.2413 51.49693,-0.0623 10.92141,2.87192 25.30165,8.88658 35.50315,14.84949 6.38398,3.73152 19.33208,13.42774 26.63,19.94195 7.619,6.80081 23.86685,23.5797 23.86685,24.64691 0,0.30991 1.17893,1.82416 2.61984,3.365 4.02634,4.30555 18.73935,25.77964 21.78888,31.80152 0.83557,1.65 2.72757,5.025 4.20445,7.5 9.95619,16.6849 24.79105,53.36588 29.92777,74 0.88997,3.575 2.28894,8.975 3.10883,12 3.05375,11.26697 7.7021,37.53949 9.34775,52.83356 2.32256,21.58504 2.13884,54.68995 -0.43103,77.66644 -1.80025,16.09559 -7.68215,44.99797 -10.58247,52 -0.45564,1.1 -1.11452,3.30727 -1.46419,4.90505 -0.89318,4.08129 -9.90383,25.53681 -14.73878,35.09495 -13.95345,27.58437 -35.22579,50.66256 -58.78105,63.77112 -4.14994,2.30945 -19.83657,8.2948 -24.5,9.34815 -11.78763,2.66254 -20.84022,3.30525 -33,2.34291 z M 1736.6582,646.23491 c -6.325,-1.85385 -18.3036,-5.24459 -26.6191,-7.53498 l -15.1191,-4.16436 -16.2971,5.678 c -8.9633,3.12289 -16.6124,5.32526 -16.9979,4.89414 -0.3855,-0.43112 -1.3999,-2.89633 -2.2542,-5.47825 l -1.5533,-4.6944 7.6703,-2.58029 c 4.2187,-1.41915 11.7868,-4.03167 16.8179,-5.8056 l 9.1474,-3.22531 15.7314,-20.5 c 8.6523,-11.275 16.4002,-21.5125 17.2176,-22.75 0.8173,-1.2375 1.8131,-2.25 2.2128,-2.25 0.3996,0 1.5562,2.7399 2.5701,6.08867 1.5702,5.18576 1.6454,6.40917 0.5071,8.25 -2.1461,3.47075 -25.1083,32.58928 -26.2609,33.30162 -0.577,0.35664 8.7937,3.09114 20.8239,6.07666 12.0302,2.98552 22.3695,5.84021 22.9762,6.34376 0.6068,0.50355 1.6581,2.76772 2.3364,5.0315 0.6782,2.26378 1.4742,4.74413 1.7688,5.51188 0.7699,2.0064 -1.5156,1.66492 -14.6783,-2.19304 z M 105.15818,608.73314 c -52.10441,-20.03318 -51.02021,-19.57745 -50.70281,-21.3132 0.1634,-0.89381 1.0634,-3.36113 2,-5.48293 l 1.7028,-3.85782 20.500003,7.93033 c 38.873607,15.03804 47.197607,18.01656 47.975907,17.16684 0.4295,-0.46887 3.3564,-7.6025 6.5042,-15.8525 3.1478,-8.25 6.3254,-16.45263 7.0614,-18.22806 l 1.3381,-3.22806 4.0718,1.82301 c 2.2395,1.00265 4.3314,2.08253 4.6486,2.39973 0.3172,0.3172 -2.4569,8.37448 -6.1647,17.90506 -6.8228,17.53744 -11.4353,29.82972 -11.4353,30.47512 0,0.76358 -2.3737,-0.0769 -27.5,-9.73752 z M 1642.705,591.19674 c -1.1257,-2.54491 -2.029,-5.13241 -2.0072,-5.75 0.022,-0.61758 9.1835,-15.52288 20.3595,-33.12288 11.176,-17.6 20.223,-32.12269 20.1044,-32.27263 -0.2051,-0.25959 -53.0622,22.94285 -56.7802,24.9246 -1.485,0.79149 -2.0972,0.24092 -3.7281,-3.35248 -1.0732,-2.36472 -1.9612,-4.77464 -1.9732,-5.35538 -0.012,-0.58073 8.4155,-4.82334 18.728,-9.428 31.1467,-13.90739 56.5623,-25.01751 57.1732,-24.99254 0.3173,0.013 1.5745,2.29367 2.7939,5.06825 l 2.2171,5.04468 -13.3221,21.18175 c -7.3272,11.64996 -16.5591,26.29754 -20.5154,32.55018 -3.9562,6.25263 -7.059,11.48053 -6.8949,11.61756 0.164,0.13703 13.3084,-5.54359 29.2097,-12.6236 15.9013,-7.08 29.0355,-12.74868 29.1872,-12.59707 1.0592,1.05922 4.1652,9.75909 3.6032,10.09252 -0.386,0.22904 -11.0519,5.02138 -23.7019,10.64966 -12.65,5.62828 -29.4536,13.10407 -37.3413,16.61287 -7.8877,3.5088 -14.5041,6.37963 -14.7032,6.37963 -0.1991,0 -1.283,-2.0822 -2.4087,-4.62712 z M 139.65818,552.17757 c -4.1783,-0.74662 -8.0012,-2.5316 -7.978,-3.72503 0.012,-0.62077 0.889,-3.03881 1.9487,-5.37341 1.8004,-3.96616 2.0985,-4.17946 4.5432,-3.25 9.8859,3.75863 21.5912,-3.69797 26.5702,-16.92592 3.0655,-8.14444 2.3291,-15.42747 -1.9461,-19.24734 -2.5176,-2.2495 -4.1266,-2.83201 -7.8228,-2.83201 h -4.6532 l -14.081,14.46691 c -14.8543,15.26141 -18.226,17.54997 -25.7989,17.51113 -10.998906,-0.0564 -20.782107,-10.33789 -20.782107,-21.84059 0,-8.54851 6.177501,-22.31492 13.136107,-29.27349 1.1163,-1.11638 4.2909,-3.16551 7.0546,-4.55363 4.2639,-2.14165 6.0658,-2.46503 11.8988,-2.13543 8.8295,0.49891 9.7345,1.37914 7.4818,7.27774 l -1.736,4.54547 -5.2643,-0.61872 c -6.7819,-0.79707 -11.6376,1.40372 -15.5076,7.02847 -6.65651,9.67496 -8.036506,19.09379 -3.5743,24.39674 5.4478,6.47435 11.3029,4.68883 21.0833,-6.42934 18.9057,-21.49174 27.2094,-25.8359 39.0808,-20.44556 9.2076,4.18081 13.8343,11.94441 13.8108,23.17461 -0.014,6.80701 -0.4248,8.43178 -3.9163,15.49636 -8.0092,16.20565 -20.9753,24.99961 -33.5477,22.75304 z M 1612.958,507.0305 c -10.1989,-3.65888 -17.9239,-10.6988 -23.5121,-21.42706 -3.0857,-5.92399 -3.2714,-6.87416 -3.2793,-16.77958 -0.01,-9.35263 0.2895,-11.13583 2.7177,-16.31874 5.6387,-12.03524 19.3403,-22.39563 34.7585,-26.28241 17.858,-4.50183 35.4112,4.34216 44.1677,22.25343 3.1173,6.37647 3.3477,7.53591 3.3475,16.84772 -2e-4,8.89635 -0.3051,10.62069 -2.763,15.62399 -5.2086,10.60262 -15.2621,19.49325 -27.7441,24.53497 -8.4325,3.40602 -20.615,4.08687 -27.6929,1.54768 z m 25.8889,-13.97746 c 13.9822,-6.8862 21.7963,-17.03034 21.9926,-28.55058 0.3091,-18.14406 -16.0701,-31.64081 -33.1028,-27.27723 -12.962,3.32072 -23.5702,10.6399 -28.6102,19.73983 -2.5603,4.62268 -2.9648,6.38906 -2.945,12.8588 0.035,11.28259 5.0292,19.5735 14.7502,24.48539 4.5908,2.31966 6.2025,2.6028 13.2502,2.32775 6.6587,-0.25987 9.1536,-0.86961 14.665,-3.58396 z M 174.09668,477.56371 c -9.3839,-6.18192 -24.9921,-16.37638 -34.6849,-22.65436 l -17.6233,-11.41451 2.9829,-4.33549 c 1.6406,-2.38452 3.4257,-4.33549 3.9669,-4.33549 0.5413,0 7.8322,4.42689 16.202,9.83754 8.3699,5.41065 15.7191,10.12432 16.3317,10.47483 0.6847,0.39177 0.1999,-3.68703 -1.2584,-10.58755 -1.3047,-6.17365 -3.9751,-18.75555 -5.9343,-27.95977 l -3.5622,-16.73495 3.7415,-6.06166 c 2.0578,-3.33391 4.0472,-6.25063 4.4209,-6.4816 0.3737,-0.23096 2.359,8.22751 4.4118,18.79661 2.0527,10.5691 4.1599,21.24936 4.6826,23.7339 l 0.9503,4.51735 30.1269,-1.77413 c 16.5698,-0.97577 30.3005,-1.60049 30.5128,-1.38827 0.2122,0.21221 -1.3223,3.11992 -3.4099,6.46156 l -3.7958,6.07572 -5.5,0.0922 c -10.8387,0.18166 -45.1373,1.80224 -45.4842,2.14909 -0.4054,0.4054 3.0455,17.79882 3.6117,18.20395 0.2049,0.14661 5.6762,3.73468 12.1584,7.9735 l 11.786,7.70693 -3.084,4.48239 c -1.6962,2.46531 -3.3998,4.47781 -3.7859,4.47223 -0.3861,-0.006 -8.3797,-5.06808 -17.7635,-11.25 z M 1563.252,441.82155 c -1.9766,-2.75128 -3.5938,-5.37686 -3.5938,-5.83463 0,-0.45777 1.7774,-5.20054 3.9497,-10.5395 7.9243,-19.47541 9.7317,-26.17789 8.6352,-32.02261 -0.725,-3.86465 -10.2241,-17.26679 -11.8952,-16.78281 -0.6042,0.17497 -7.3371,4.82959 -14.962,10.34358 -15.2519,11.02956 -14.8834,10.95273 -19.0009,3.96186 l -1.7731,-3.01059 7.5732,-5.60069 c 17.9557,-13.27883 58.7361,-42.59396 59.5308,-42.79389 0.8024,-0.20185 5.2458,5.60661 19.4652,25.44507 13.5576,18.91508 14.8243,27.53783 5.5904,38.05464 -8.2342,9.37825 -21.0442,10.27555 -31.6129,2.21438 l -3.5004,-2.66988 v 3.93719 c 0,2.16545 -0.7234,6.38136 -1.6076,9.36869 -2.5928,8.75996 -11.459,30.9315 -12.3692,30.9315 -0.4596,0 -2.4528,-2.25104 -4.4294,-5.00231 z m 42.1423,-44.60978 c 5.6821,-3.59762 7.1026,-10.89467 3.4866,-17.91045 -1.1275,-2.1876 -5.5857,-8.77766 -9.9072,-14.64458 l -7.8572,-10.66711 -10.4701,7.38992 c -5.7585,4.06446 -10.6015,7.78418 -10.7621,8.26605 -0.1606,0.48187 3.8853,6.45661 8.9909,13.27719 12.2664,16.38656 18.1765,19.57105 26.5191,14.28898 z M 233.63068,421.1696 c -1.3598,-0.90984 -4.7225,-3.3147 -7.4725,-5.34414 -2.75,-2.02943 -15.8,-11.48123 -29,-21.00399 -13.2,-9.52277 -24.8484,-18.10378 -25.8853,-19.06893 -1.8448,-1.71716 -1.8392,-1.82935 0.2621,-5.22933 3.6868,-5.96532 3.9506,-5.96167 12.2095,0.16914 4.1725,3.09733 19.3306,14.14305 33.6848,24.54605 l 26.0986,18.91453 -2.9829,4.33547 c -1.6406,2.3845 -3.3111,4.33546 -3.7123,4.33546 -0.4012,0 -1.8421,-0.74442 -3.202,-1.65426 z m 17.9,-25.02472 c -1.2727,-1.55694 -9.7578,-9.0343 -46.6983,-41.15217 -9.6351,-8.37718 -13.9409,-12.74423 -13.4285,-13.61943 0.4149,-0.70856 9.2448,-11.0095 19.6222,-22.89098 20.2906,-23.23174 19.4901,-22.66691 24.5136,-17.29582 l 2.3815,2.54626 -13.8815,15.77322 c -7.6348,8.67528 -14.8705,16.9453 -16.0792,18.37784 l -2.1978,2.60462 9.4074,8.18989 9.4074,8.18989 15.2545,-17.51602 15.2545,-17.51603 3.7446,3.65653 3.7446,3.65654 -5.8318,6.58732 c -3.2074,3.62302 -9.9574,11.31232 -14.9999,17.08732 l -9.1681,10.5 4.8132,4.5 c 2.6472,2.475 7.3462,6.6541 10.4421,9.28689 l 5.629,4.78689 16.349,-18.98186 c 8.992,-10.44003 16.8232,-19.00663 17.4029,-19.03689 0.5796,-0.0303 2.4718,1.40796 4.2049,3.19607 l 3.1511,3.25109 -3.0562,3.49891 c -1.6809,1.92439 -10.9423,12.6114 -20.5808,23.7489 -9.6386,11.1375 -17.6379,20.25 -17.7763,20.25 -0.1384,0 -0.8693,-0.75554 -1.6241,-1.67898 z m 1256.72252,-24.77035 -3.6199,-4.4177 14.5124,-12.70731 c 7.9819,-6.98901 14.5074,-12.98143 14.5012,-13.31648 -0.01,-0.33505 -4.3937,-5.57423 -9.75,-11.64263 -5.3563,-6.0684 -11.57,-13.12701 -13.8083,-15.6858 l -4.0695,-4.65234 -14.3552,12.43579 c -7.8954,6.83969 -14.6353,12.4358 -14.9775,12.4358 -0.3423,0 -2.3087,-1.72702 -4.3698,-3.83782 l -3.7476,-3.83782 12.7946,-11.06552 c 7.037,-6.08603 19.3196,-16.77395 27.2946,-23.75092 7.975,-6.97698 16.585,-14.44341 19.1333,-16.59208 l 4.6333,-3.90666 3.5993,4.39244 3.5992,4.39243 -12.8688,11.27474 -12.8689,11.27473 13.6363,15.76175 c 7.5,8.66896 13.9855,15.79166 14.4122,15.82824 0.4267,0.0366 6.4519,-4.8958 13.3893,-10.96083 6.9374,-6.06502 12.6633,-10.89561 12.7241,-10.73464 0.061,0.16097 1.8138,2.12067 3.8953,4.35489 l 3.7846,4.06223 -28.6713,24.92242 c -15.7692,13.70733 -30.1364,26.1528 -31.9271,27.65661 l -3.2558,2.73419 z m -62.595,-68.42792 c -9.5324,-3.13083 -20.6975,-12.80337 -25.0979,-21.74274 -2.0293,-4.1226 -2.4021,-6.36655 -2.4021,-14.45783 0,-9.28854 0.1312,-9.84246 4.3431,-18.34012 9.6956,-19.56108 29.0501,-31.73662 45.5892,-28.6792 12.486,2.30816 25.3188,11.94323 30.2485,22.71105 3.4977,7.64006 3.1053,22.58341 -0.7021,26.73657 -0.4288,0.46776 -2.8853,-0.38349 -5.4588,-1.89166 -3.8781,-2.27273 -4.5642,-3.10306 -4.0079,-4.85048 0.3691,-1.15959 0.9072,-4.67078 1.1957,-7.80265 0.8688,-9.43007 -3.8738,-16.6482 -14.7077,-22.38498 -5.3168,-2.81533 -15.1657,-2.54784 -21.5,0.58392 -12.2392,6.05124 -24.51,23.52767 -24.4902,34.87973 0.018,10.40594 5.7967,18.90233 15.913,23.39703 5.7889,2.57206 14.2317,1.92104 20.4966,-1.58048 4.9539,-2.76876 4.7337,-2.86073 9.3912,3.92179 l 2.1443,3.12269 -6.2275,3.31948 c -5.3206,2.8361 -7.3923,3.36021 -14.2274,3.59923 -4.4,0.15386 -9.125,-0.0897 -10.5,-0.54135 z M 369.15821,233.37034 c -12.1,-15.63714 -22.30292,-28.45712 -22.67315,-28.48883 -0.37023,-0.0317 -5.29789,3.54235 -10.95034,7.94235 -5.65244,4.4 -10.57724,8 -10.94394,8 -0.3668,0 -1.8428,-1.77707 -3.2802,-3.94905 l -2.6133,-3.94905 4.2305,-3.41688 c 14.20839,-11.47589 47.02586,-36.68502 47.75685,-36.68502 0.85962,0 5.97358,6.1843 5.97358,7.22385 0,0.29428 -4.72815,4.26723 -10.507,8.82876 -9.35128,7.38144 -10.36874,8.48865 -9.25,10.06603 0.69135,0.97478 10.57876,13.67463 21.97202,28.22189 11.39325,14.54726 20.84325,26.89643 21,27.44259 0.26992,0.94055 -6.80167,7.22943 -8.10252,7.20571 -0.33688,-0.006 -10.5125,-12.8052 -22.6125,-28.44235 z m 1004.49429,12.08859 c -5.8523,-1.6927 -8.306,-3.03144 -15.1125,-8.24538 -17.291,-13.24547 -19.7869,-36.09856 -6.104,-55.88969 5.7802,-8.3605 14.5711,-15.73281 22.1798,-18.60069 4.5485,-1.7144 7.1564,-2.01495 14.5424,-1.67597 7.713,0.35398 9.9295,0.88258 15.5,3.69662 18.2645,9.2266 26.8208,28.14215 21.1601,46.77887 -3.9778,13.09616 -15.4957,26.81858 -26.8877,32.03398 -6.7774,3.10281 -18.1646,3.95974 -25.2781,1.90226 z m 20.0057,-12.20902 c 13.0944,-6.08156 24.6026,-25.87344 22.4718,-38.64708 -2.2684,-13.59852 -13.3974,-22.96094 -27.4805,-23.11832 -8.6904,-0.0971 -14.3344,2.69381 -21.5322,10.64769 -14.0623,15.53931 -16.2396,33.23833 -5.4804,44.54863 8.6411,9.08364 21.1027,11.64011 32.0213,6.56908 z M 427.94514,219.82424 c -11.33028,-4.02843 -19.88945,-12.35756 -26.58572,-25.87121 -4.13563,-8.34604 -4.20121,-8.64347 -4.20121,-19.05378 0,-9.70293 0.24089,-11.05105 2.91993,-16.34104 3.62941,-7.1666 11.27335,-14.50726 19.66904,-18.88867 6.08353,-3.17477 6.94742,-3.34568 16.91103,-3.34568 9.52167,0 11.00225,0.25896 15.89042,2.77926 6.68342,3.44592 10.43712,6.5288 15.73406,12.92225 8.64156,10.43041 13.10053,23.1316 12.05425,34.336 -0.6934,7.42541 -1.79417,10.1402 -7.33562,18.09147 -9.99722,14.34473 -29.36223,20.95132 -45.05618,15.3714 z m 25.35361,-11.49916 c 17.62686,-7.85358 20.69464,-28.6155 6.97811,-47.22599 -7.48285,-10.15268 -15.19889,-14.61635 -25.11865,-14.53096 -10.59181,0.0912 -19.82259,5.70385 -24.52646,14.91305 -1.98804,3.89217 -2.47354,6.33074 -2.47354,12.42408 0,6.8763 0.37018,8.30087 3.98027,15.31742 4.18983,8.14332 12.88571,17.58183 18.18944,19.74282 7.82353,3.18768 14.81648,2.99272 22.97083,-0.64042 z m 54.08711,-44.75122 c -6.81931,-8.3875 -17.98525,-22.1801 -24.8132,-30.65023 -6.82795,-8.47013 -13.47817,-16.7064 -14.77828,-18.30284 -1.30011,-1.59643 -2.20011,-3.04547 -2,-3.22009 1.14921,-1.00283 10.18624,-4.49155 10.72251,-4.1394 0.35273,0.23163 10.09132,13.00379 21.64132,28.38259 11.55,15.3788 21.0872,27.88592 21.19378,27.7936 0.10658,-0.0923 -0.25594,-2.16942 -0.8056,-4.61578 -1.176,-5.23402 -10.00575,-66.217861 -9.63877,-66.571451 1.33784,-1.28898 12.28394,-5.28901 12.86041,-4.69957 4.09192,4.18392 35.96582,43.233571 39.18551,48.007311 2.31257,3.42877 4.3264,5.87609 4.47517,5.43849 0.14878,-0.4376 -2.43872,-15.5772 -5.75,-33.64354 -3.31127,-18.066351 -6.0205,-33.391171 -6.0205,-34.055171 0,-1.01976 9.97278,-5.99527 10.49031,-5.2337 0.0971,0.14288 3.08508,19.38478 6.63998,42.759781 l 6.46346,42.5 -4.04688,2.20481 c -2.22578,1.21265 -4.58597,2.22515 -5.24486,2.25 -0.92062,0.0347 -34.74881,-39.99388 -46.44232,-54.95481 l -1.95401,-2.5 0.53843,3 c 1.39955,7.79784 10.52213,70.8671 10.28481,71.10441 -0.34946,0.34946 -9.7833,4.39559 -10.24863,4.39559 -0.19464,0 -5.93333,-6.8625 -12.75264,-15.25 z m 690.95234,-12.67015 c -19.7711,-6.47738 -30.7988,-25.5501 -26.7301,-46.23076 1.6933,-8.606901 7.9443,-20.580481 13.9786,-26.775721 3.1138,-3.19677 7.5945,-6.37167 11.7962,-8.35839 6.0783,-2.87405 7.6497,-3.19106 15.2753,-3.08177 17.2852,0.24774 32.4403,10.33807 38.0996,25.36679 7.3705,19.573011 -3.9587,47.893941 -22.8896,57.219431 -5.7269,2.82112 -7.8535,3.31464 -15.1848,3.52386 -6.2182,0.17746 -10.1001,-0.27268 -14.3452,-1.66344 z m 24.4704,-11.72862 c 6.6872,-3.60325 11.953,-10.47809 15.5882,-20.35123 5.9049,-16.03773 2.6404,-29.566991 -8.9402,-37.051901 -6.5181,-4.21288 -12.1838,-5.53634 -19.8259,-4.63124 -10.0188,1.18657 -16.115,6.36878 -22.333,18.98446 -4.0243,8.164991 -5.5026,15.805181 -4.5313,23.418081 2.34,18.34066 23.3351,28.63409 40.0422,19.63183 z m -627.14491,2.8332 c 0.0154,-10.36943 3.07269,-85.595931 3.49587,-86.019111 0.27086,-0.27086 2.8443,-1.3207 5.71876,-2.33298 l 5.22628,-1.8405 2.13129,2.25408 c 1.17221,1.23975 9.95304,11.25408 19.51295,22.25408 9.55992,11 17.61986,20.225 17.91098,20.5 1.71814,1.62297 19.54665,22.268711 19.77615,22.901121 0.43262,1.19219 -11.7206,4.57532 -12.6337,3.51689 -0.43558,-0.5049 -4.30285,-5.08051 -8.59393,-10.16801 -4.29109,-5.0875 -7.87467,-9.25 -7.96353,-9.25 -0.33979,0 -29.17415,9.815 -30.8366,10.49654 -1.543,0.63257 -1.75,2.2908 -1.75,14.01864 v 13.30121 l -6,2.02623 -6,2.02623 z m 25.49452,-41.82324 c 5.5,-1.899101 10.60084,-3.657861 11.3352,-3.908361 0.88696,-0.30255 -0.94266,-3.22459 -5.45005,-8.70414 -3.73189,-4.53678 -7.59123,-9.05 -8.57633,-10.02938 -0.98509,-0.97938 -3.60926,-4.24188 -5.83149,-7.25 -2.22223,-3.00812 -4.13872,-5.46779 -4.25887,-5.46593 -0.12015,0.002 -0.28349,9.03178 -0.36296,20.0665 -0.13147,18.252141 0.004,20.003611 1.5,19.403681 0.90447,-0.36271 6.1445,-2.21327 11.6445,-4.11237 z m 503.99999,24.28586 -4,-1.22201 0.1333,-37.295841 c 0.073,-20.51271 -0.1958,-36.92084 -0.598,-36.46252 -0.4022,0.45833 -4.796,7.58332 -9.7639,15.83332 -12.6547,21.01502 -27.3527,44.839541 -28.2862,45.850021 -0.4319,0.46752 -3.3272,0.11107 -6.434,-0.7921 l -5.6487,-1.64213 0.5276,-8.2079 c 0.2902,-4.514341 0.7913,-23.949581 1.1136,-43.189421 0.3223,-19.23983 0.6761,-35.07159 0.7862,-35.18168 0.1101,-0.11009 2.7492,0.50934 5.8648,1.37651 l 5.6646,1.57667 -0.459,6.60502 c -0.9688,13.94055 -3.401,63.43762 -3.1306,63.70807 0.1563,0.15632 3.0145,-4.30292 6.3514,-9.90942 17.8006,-29.90732 30.6561,-49.69364 32.2868,-49.69364 0.951,0 4.0608,0.69243 6.9106,1.53874 l 5.1815,1.53874 -0.071,27.21126 c -0.039,14.96619 -0.416,30.81126 -0.8373,35.211261 -0.4213,4.4 -0.6754,8.12633 -0.5648,8.28074 0.1107,0.15441 7.9712,-13.345591 17.4678,-30.000001 9.4966,-16.65441 17.4382,-30.4737 17.648,-30.70954 0.2099,-0.23584 2.8156,0.33847 5.7905,1.27623 l 5.409,1.70503 -10.7593,17.72377 c -5.9177,9.74807 -15.9546,26.27377 -22.3042,36.723771 -6.3497,10.45 -12.16,19.08304 -12.9118,19.18453 -0.7518,0.10149 -3.1669,-0.36537 -5.3669,-1.03748 z m -447.53283,-5.89705 c -0.0181,-0.1375 -4.21963,-18.25 -9.33683,-40.250001 -5.1172,-22 -9.03992,-40.30686 -8.71716,-40.68191 0.97478,-1.13273 39.71199,-9.86064 46.37803,-10.44948 9.91505,-0.87584 17.50012,3.44182 21.74012,12.37515 5.63046,11.86294 0.82219,25.16966 -10.98303,30.39516 -3.74264,1.65665 -3.83778,2.44611 -0.39882,3.30924 3.8627,0.96948 12.48298,8.00421 23.72269,19.35933 l 9.87215,9.973521 -6.80786,1.55288 -6.80785,1.55288 -12.68834,-12.293201 c -17.51983,-16.97423 -20.73149,-18.30862 -35.44026,-14.72481 -5.94884,1.44944 -6.95277,2.00031 -6.68548,3.6684 0.17298,1.07956 1.86048,8.66669 3.75,16.86027 1.88951,8.193591 3.43548,15.452671 3.43548,16.131291 0,1.37881 -10.85842,4.54917 -11.03284,3.22128 z m 18.23902,-52.154951 c 18.33534,-4.54358 21.90774,-7.17684 22.0449,-16.24953 0.11431,-7.56182 -4.91003,-12.30292 -13.06744,-12.33078 -3.61472,-0.0123 -30.93368,5.56886 -32.0362,6.54492 -0.3106,0.27498 4.2766,20.94149 5.36935,24.19034 0.61598,1.83136 2.55712,1.59489 17.68939,-2.15495 z m 56.2922,30.39316 c -0.68881,-5.00825 -0.6817,-5.02467 10.07139,-23.25 5.91838,-10.03102 15.15345,-25.55071 20.52238,-34.48821 8.60236,-14.32009 9.50315,-16.24673 7.58477,-16.22249 -1.19731,0.0151 -11.16601,1.33854 -22.15268,2.9409 -10.98667,1.60237 -20.16986,2.7193 -20.40708,2.48208 -1.13397,-1.13396 -1.74857,-9.65152 -0.72185,-10.00371 2.16993,-0.74433 58.11269,-8.2712996 58.51177,-7.87262 0.22389,0.22367 0.71517,2.43673 1.09172,4.91792 0.68267,4.49828 0.62481,4.61095 -20.13021,39.20313 -11.44816,19.08053 -20.70254,34.80418 -20.56528,34.94143 0.13725,0.13726 11.63094,-1.34406 25.54152,-3.29181 13.91058,-1.94775 25.44409,-3.38465 25.63002,-3.1931 0.18594,0.19155 0.65316,2.46515 1.03828,5.05245 0.65273,4.38516 0.5404,4.74052 -1.65646,5.24015 -3.15062,0.71656 -60.01468,8.555671 -62.06186,8.555671 -1.17071,0 -1.79432,-1.36098 -2.29643,-5.011791 z m 258.25161,2.29554 c -2.227,-0.33737 -2.7421,-0.92696 -2.7086,-3.10017 0.023,-1.47597 2.1911,-17.75858 4.8184,-36.18358 2.6274,-18.425 4.6693,-33.65192 4.5377,-33.83759 -0.1317,-0.18568 -4.8874,-0.97487 -10.5684,-1.75376 -16.47536,-2.25883 -15.83146,-2.00484 -15.81376,-6.2381 0.029,-6.96462 -1.3514,-6.86918 32.12576,-2.22097 16.6974,2.31839 31.3909,4.45685 32.6523,4.75213 2.1125,0.49453 2.2404,0.90215 1.6219,5.16759 -0.3694,2.54688 -0.8046,4.78385 -0.9671,4.97103 -0.1625,0.18718 -6.1692,-0.46097 -13.3482,-1.44033 -7.179,-0.97936 -13.2596,-1.57372 -13.5125,-1.32079 -0.253,0.25293 -2.5216,15.30108 -5.0415,33.44033 -2.5198,18.13925 -4.8343,34.21796 -5.1432,35.73046 -0.5857,2.867498 -1.5903,3.103621 -8.6528,2.03375 z m -77.36124,-6.70856 c -15.26507,-3.47946 -24.17699,-12.32666 -26.01413,-25.82519 l -0.64647,-4.75 h 6.13593 6.13592 v 3.09887 c 0,10.3045 10.79885,17.90113 25.44704,17.90113 11.3757,0 19.55134,-6.75811 17.93748,-14.82739 -1.22076,-6.10382 -4.10954,-7.84321 -27.77992,-16.72677 -15.16427,-5.69119 -20.6046,-11.62231 -20.6046,-22.46338 0,-8.03416 4.51629,-15.016 12.5,-19.3240393 3.44243,-1.8575499 5.60302,-2.1563299 15.5,-2.1434199 9.52715,0.0124 12.2807,0.37365 16.05081,2.1056499 9.46296,4.3473293 14.84162,11.2612493 16.43762,21.1293493 l 0.6874,4.25 h -6.08793 c -5.78369,0 -6.0879,-0.12167 -6.0879,-2.4349 0,-8.51251 -6.78191,-14.1594 -18.27819,-15.21915 -11.59182,-1.06856 -19.72181,3.50555 -19.72181,11.09592 0,6.57225 3.26361,8.67353 26.39328,16.99336 15.43679,5.55268 22.62025,13.06468 22.59695,23.63049 -0.012,5.31775 -3.58244,13.35175 -7.61375,17.13067 -6.97293,6.53636 -20.6736,9.18564 -32.98773,6.3788 z m -78.85227,-1.82519 c -0.22041,-0.6875 -0.57424,-8.72194 -0.78629,-17.85431 l -0.38554,-16.60431 -4.45162,-5.89569 c -7.95093,-10.53015 -28.91303,-40.06725 -28.91303,-40.7405393 0,-0.36033 3.06163,-0.65515 6.80362,-0.65515 h 6.80361 l 11.56621,16.7499993 c 6.36141,9.2125 12.1608,17.7269 12.88753,18.92089 1.23884,2.03539 2.06633,0.92746 13.25705,-17.75 L 882.91197,6.8238598 h 7.02811 c 6.60734,0 6.93686,0.10477 5.50409,1.7499999 -0.83821,0.9625 -8.12522,12.0410893 -16.19336,24.6190893 l -14.66935,22.86909 0.69068,17.88091 0.69067,17.88091 h -5.68368 c -3.66655,0 -5.82591,-0.44362 -6.08444,-1.25 z"
       id="path1" />
  </g>
</svg>
