<?xml version="1.0" encoding="utf-8"?>
<!-- Generator: Adobe Illustrator 26.1.0, SVG Export Plug-In . SVG Version: 6.00 Build 0)  -->
<svg version="1.1" id="Layer_2" xmlns="http://www.w3.org/2000/svg" xmlns:xlink="http://www.w3.org/1999/xlink" x="0px" y="0px"
	 viewBox="0 0 2160 2160" style="enable-background:new 0 0 2160 2160;" xml:space="preserve">
<style type="text/css">
	.st0{fill:url(#SVGID_1_);}
	.st1{fill:url(#SVGID_00000100359723971365370720000003449357597903402409_);}
	.st2{fill:url(#SVGID_00000001638232364011015510000012445036472740117382_);}
	.st3{fill:#63BF7D;}
	.st4{fill:#8AC754;}
	.st5{fill:#5FBE7E;}
	.st6{fill:#18B2B2;}
	.st7{fill:#2099B3;}
	.st8{fill:#2391B0;}
	.st9{fill:#2882AF;}
	.st10{fill:#446BAC;}
	.st11{fill:#2490B6;}
	.st12{fill:#38BA94;}
	.st13{fill:#4979AD;}
	.st14{fill:#BE3780;}
	.st15{fill:#B13C7E;}
	.st16{fill:#4886B3;}
	.st17{fill:#7D4F94;}
	.st18{fill:#DB267A;}
	.st19{fill:#E16869;}
	.st20{fill:#DA4C7E;}
	.st21{fill:#F5DD58;}
	.st22{fill:#EA9B70;}
	.st23{fill:#DB3279;}
	.st24{fill:#DA4076;}
	.st25{fill:#B04184;}
	.st26{fill:#7B5193;}
	.st27{fill:#AA3A7E;}
	.st28{fill:#8CC755;}
	.st29{fill:#72C16C;}
	.st30{fill:#1DB3A3;}
	.st31{fill:#19AEA9;}
	.st32{fill:#1E9CB2;}
	.st33{fill:#248AB2;}
	.st34{fill:#3272AF;}
	.st35{fill:#21B5A9;}
	.st36{fill:#2397AB;}
	.st37{fill:#9B3F81;}
	.st38{fill:#30AFBE;}
	.st39{fill:#785C9B;}
	.st40{fill:#5C61A0;}
	.st41{fill:#555696;}
	.st42{fill:#E15974;}
	.st43{fill:#E05272;}
	.st44{fill:#EEB161;}
	.st45{fill:#E78E67;}
	.st46{fill:#EC867B;}
	.st47{fill:#E9A264;}
	.st48{fill:#636FA9;}
	.st49{fill:#E1547A;}
	.st50{fill:#745197;}
	.st51{fill:#A6407F;}
	.st52{fill:#784284;}
	.st53{fill:#416AAC;}
	.st54{fill:#5D8BB5;}
	.st55{fill:#E99F6E;}
	.st56{fill:#E46471;}
	.st57{fill:#D32B7B;}
	.st58{fill:#DF3B7A;}
	.st59{fill:#E68468;}
	.st60{fill:#954D8D;}
	.st61{fill:#C94989;}
	.st62{fill:#E88B69;}
	.st63{fill:#4E6BAA;}
	.st64{fill:#C43A7B;}
	.st65{fill:#DB2679;}
	.st66{fill:#E56770;}
	.st67{fill:#DF257A;}
	.st68{fill:#EAD45B;}
	.st69{fill:#F1CB61;}
	.st70{fill:#D83478;}
	.st71{fill:#DA3342;}
	.st72{fill:#E1DA84;}
	.st73{fill:#324260;}
	.st74{fill:#FFFFFF;}
</style>
<g>
	<g>
		<linearGradient id="SVGID_1_" gradientUnits="userSpaceOnUse" x1="1237.3601" y1="1871.325" x2="1237.3601" y2="1493.8149">
			<stop  offset="0" style="stop-color:#119156"/>
			<stop  offset="0.2898" style="stop-color:#4F9C53"/>
			<stop  offset="1" style="stop-color:#9FBA49"/>
		</linearGradient>
		<path class="st0" d="M1503.07,1496.6c-87.02,107.83-222.22,231.46-423.07,374.72c-38.48-27.45-74.55-54.18-108.34-80.22
			c11.04-15,31.37-36.23,64.77-50.35c41.87-17.7,144-40.51,144.68-78.98c0.78-44.25-133.79-45.61-137.19-74.55
			C1040.65,1559.49,1322.51,1477.77,1503.07,1496.6z"/>
		
			<linearGradient id="SVGID_00000142164086527454207510000010330723111151137468_" gradientUnits="userSpaceOnUse" x1="894.0068" y1="1716.095" x2="894.0068" y2="1530.5046">
			<stop  offset="0" style="stop-color:#119156"/>
			<stop  offset="0.2898" style="stop-color:#4F9C53"/>
			<stop  offset="1" style="stop-color:#9FBA49"/>
		</linearGradient>
		<path style="fill:url(#SVGID_00000142164086527454207510000010330723111151137468_);" d="M1076.4,1674.01
			c-39.16,9.71-147.67,16.85-198.13,42.09c-79.19-66.52-142.66-128.2-192.8-185.56c175.78-1.33,339.58,41.37,339.58,41.37
			s-24.71,8.51-25.39,19.4c-0.68,10.9,30.28,24.11,67.41,35.75C1105.06,1638.96,1118.95,1663.45,1076.4,1674.01z"/>
		
			<linearGradient id="SVGID_00000130637083443346594280000009666351391964715934_" gradientUnits="userSpaceOnUse" x1="1096.3201" y1="1783.9561" x2="1096.3201" y2="1471.8845">
			<stop  offset="5.327789e-09" style="stop-color:#3F9FD8"/>
			<stop  offset="0.583" style="stop-color:#217BB8"/>
			<stop  offset="0.5942" style="stop-color:#207CAE"/>
			<stop  offset="0.6224" style="stop-color:#1E809A"/>
			<stop  offset="0.6527" style="stop-color:#1C8288"/>
			<stop  offset="0.6847" style="stop-color:#1A8578"/>
			<stop  offset="0.719" style="stop-color:#18866B"/>
			<stop  offset="0.7562" style="stop-color:#168860"/>
			<stop  offset="0.798" style="stop-color:#158958"/>
			<stop  offset="0.848" style="stop-color:#148953"/>
			<stop  offset="0.9282" style="stop-color:#148952"/>
		</linearGradient>
		<path style="fill:url(#SVGID_00000130637083443346594280000009666351391964715934_);" d="M1516.41,1479.7
			c-4.32,5.59-8.76,11.23-13.34,16.9c-180.56-18.84-462.42,62.89-459.15,90.62c3.4,28.94,137.97,30.3,137.19,74.55
			c-0.68,38.47-102.81,61.28-144.68,78.98c-33.4,14.12-53.73,35.35-64.77,50.35c-33.31-25.66-64.41-50.66-93.39-75.01
			c50.46-25.24,158.97-32.38,198.13-42.09c42.55-10.55,28.66-35.04-9.33-46.95c-37.13-11.64-68.09-24.85-67.41-35.75
			c0.68-10.89,25.39-19.4,25.39-19.4s-163.8-42.7-339.58-41.37c-3.13-3.58-6.21-7.14-9.23-10.68c38.01-4.39,77.37-4.76,115.58-2.69
			c11.94,0.64,23.76,1.53,35.39,2.6c117.16,10.83,215,40.91,215,40.91s10.26-4.92,29.62-12.35c8.6-3.3,19.01-7.09,31.11-11.17
			C1180.23,1511.11,1326.8,1473.55,1516.41,1479.7z"/>
		<g>
			<path class="st3" d="M867.58,924.42l-135.83,52.09l-65.88,1.02l95.31-89.19c18.57-3.14,38.06-4.77,58.4-4.77
				c1.99,0,3.97,0.02,5.93,0.06L867.58,924.42z"/>
			<path class="st4" d="M876.39,889.31l-8.81,35.11l-42.07-40.79C843.5,883.98,860.46,885.98,876.39,889.31z"/>
			<path class="st5" d="M951.16,917.03l-83.58,7.39l8.81-35.11c0.26,0.05,0.51,0.11,0.76,0.16
				C904.84,895.3,929.47,905.06,951.16,917.03z"/>
			<path class="st6" d="M1009.15,959.06l-87.45,120.08l-54.12-154.72l83.58-7.39C973.56,929.34,992.84,944.01,1009.15,959.06z"/>
			<polygon class="st7" points="747.83,1051.56 684.51,1175.64 665.87,977.53 			"/>
			<path class="st8" d="M684.51,1175.64l-159.26,58.67c-2.86-18.46-4.09-36.3-3.89-53.56c0.39-32.88,5.18-64.44,14.06-93.89
				L684.51,1175.64z"/>
			<polygon class="st9" points="921.7,1079.13 684.51,1175.64 747.83,1051.56 			"/>
			<polygon class="st10" points="1050.38,1079.9 962.56,1153.18 849.45,1213.43 921.7,1079.13 			"/>
			<path class="st11" d="M1204.34,1102.88l-115.62-66.95c2.02-3.41,4.39-7.27,7.12-11.48c16.27-25.1,45.46-62.69,89.18-92.72
				l11.13,11.06L1204.34,1102.88z"/>
			<path class="st12" d="M1395.17,887.74l-60.61,66.54l-34.08-67.94c12.71-1.8,26.02-2.78,39.95-2.78
				C1359.44,883.56,1377.71,884.99,1395.17,887.74z"/>
			<polygon class="st13" points="1410.38,1004.84 1386.64,1087.56 1334.56,954.29 			"/>
			<polygon class="st14" points="1562.65,1123.56 1502.81,1239.99 1386.64,1087.56 			"/>
			<path class="st15" d="M1630.98,1111.63l-68.33,11.93l17.19-64.6l32.87-4.74C1620.53,1072.4,1626.65,1091.61,1630.98,1111.63z"/>
			<path class="st16" d="M1591.17,1013.34l-11.33,45.62l-103.72-146.84C1524.67,934.8,1563.6,969.88,1591.17,1013.34z"/>
			<path class="st17" d="M1612.71,1054.22l-32.87,4.74l11.33-45.62c1.65,2.59,3.26,5.22,4.82,7.87
				C1602.22,1031.78,1607.81,1042.8,1612.71,1054.22z"/>
			<path class="st18" d="M1638.64,1180.76c0.12,10.19-0.26,20.57-1.18,31.17l-57.62,10.7l-17.19-99.06l68.33-11.93
				C1635.77,1133.79,1638.36,1156.92,1638.64,1180.76z"/>
			<path class="st19" d="M1637.46,1211.92c-3.35,38.74-13.9,80.29-33.66,125.1l-23.96-114.4L1637.46,1211.92z"/>
			<polygon class="st20" points="1579.84,1222.62 1502.81,1239.99 1562.65,1123.56 			"/>
			<path class="st21" d="M1603.8,1337.03c-19.51,44.25-47.99,91.67-87.39,142.68c-189.61-6.16-336.18,31.41-413.47,57.45
				l34.25-55.12l152.17-26.56l58.22-99.06l50.55,48l153.7-54.13l28.01-127.66L1603.8,1337.03z"/>
			<polygon class="st22" points="1071.81,1430.47 1016.68,1513.69 958.47,1341.09 			"/>
			<polygon class="st23" points="1332.26,1204.24 1253.62,1251.22 1196.15,1204.24 			"/>
			<path class="st24" d="M697.02,1341.09l-37.41,158.81c-27.44-33.72-50.18-65.9-68.74-96.67L697.02,1341.09z"/>
			<path class="st25" d="M697.02,1341.09l-106.15,62.14c-27.19-45.04-45.42-87.03-56.37-126.33L697.02,1341.09z"/>
			<path class="st26" d="M697.02,1251.22v89.87L534.5,1276.9v-0.01c-2.69-9.66-4.94-19.15-6.78-28.49L697.02,1251.22z"/>
			<polygon class="st27" points="1065.7,1239.99 872.68,1306.38 962.56,1153.18 			"/>
			<path class="st28" d="M761.18,888.33l-95.31,89.19l-48.15-21.89C655.77,921.69,704.16,897.94,761.18,888.33z"/>
			<path class="st29" d="M665.87,977.53l-103.76,46.99c0.63-1.11,1.26-2.21,1.91-3.3c14.5-24.58,32.49-46.67,53.7-65.58
				L665.87,977.53z"/>
			<polygon class="st30" points="867.58,924.42 747.83,1051.56 665.87,977.53 731.75,976.51 			"/>
			<path class="st31" d="M684.51,1175.64l-149.09-88.78c6.65-22.07,15.6-42.96,26.69-62.35l103.76-46.99L684.51,1175.64z"/>
			<polygon class="st32" points="921.7,1079.13 747.83,1051.56 867.58,924.42 			"/>
			<path class="st33" d="M1050.38,1079.9l-128.68-0.77l87.45-120.08c5.66,5.21,10.95,10.48,15.9,15.7L1050.38,1079.9z"/>
			<path class="st34" d="M1204.34,1102.88l-153.96-22.98l-25.33-105.15c17.17,18.13,30.12,35.82,39.12,49.7
				c10.71,16.51,15.83,27.62,15.83,27.62s2.84-6.17,8.72-16.14L1204.34,1102.88z"/>
			<path class="st35" d="M1334.56,954.29l-138.41-11.49l-11.13-11.06c26.96-18.54,59.44-34.19,97.82-42.27
				c5.75-1.21,11.62-2.26,17.64-3.12L1334.56,954.29z"/>
			<path class="st36" d="M1476.11,912.12l-65.73,92.72l-75.82-50.56l60.61-66.54C1424.47,892.33,1451.52,900.64,1476.11,912.12z"/>
			<polygon class="st37" points="1245.7,1123.56 1196.15,1204.24 1065.7,1239.99 1204.34,1102.88 			"/>
			<polygon class="st38" points="1334.56,954.29 1204.34,1102.88 1196.15,942.8 			"/>
			<polygon class="st39" points="1579.84,1058.96 1562.65,1123.56 1386.64,1087.56 1410.38,1004.84 			"/>
			<polygon class="st40" points="1204.34,1102.88 1065.7,1239.99 1050.38,1079.9 			"/>
			<path class="st41" d="M697.02,1251.22l-169.3-2.82c-0.93-4.74-1.76-9.43-2.47-14.09l159.26-58.67L697.02,1251.22z"/>
			<polygon class="st42" points="1342.47,1310.45 1207.66,1310.45 1253.62,1251.22 1332.26,1204.24 			"/>
			<polygon class="st43" points="1464,1297.18 1342.47,1310.45 1332.26,1204.24 			"/>
			<polygon class="st44" points="1551.83,1350.29 1398.12,1404.41 1464,1297.18 			"/>
			<polygon class="st45" points="1464,1297.18 1398.12,1404.41 1347.58,1356.41 1342.47,1310.45 			"/>
			<path class="st46" d="M791.82,1517.16c-38.21-2.07-77.57-1.7-115.58,2.69c-5.73-6.71-11.27-13.36-16.63-19.95l37.41-158.81
				l78,84.77L791.82,1517.16z"/>
			<polygon class="st47" points="1289.36,1455.47 1137.19,1482.04 1207.66,1310.45 			"/>
			<polygon class="st48" points="1065.7,1239.99 962.56,1153.18 1050.38,1079.9 			"/>
			<polygon class="st49" points="1137.19,1482.04 1071.81,1430.47 958.47,1341.09 1065.7,1239.99 			"/>
			<polygon class="st50" points="872.68,1306.38 697.02,1251.22 684.51,1175.64 			"/>
			<polygon class="st51" points="872.68,1306.38 697.02,1341.09 697.02,1251.22 			"/>
			<polygon class="st52" points="962.56,1153.18 872.68,1306.38 684.51,1175.64 849.45,1213.43 			"/>
			<polygon class="st53" points="921.7,1079.13 849.45,1213.43 684.51,1175.64 			"/>
			<polygon class="st54" points="1386.64,1087.56 1245.7,1123.56 1204.34,1102.88 1334.56,954.29 			"/>
			<polygon class="st55" points="1347.58,1356.41 1289.36,1455.47 1207.66,1310.45 1342.47,1310.45 			"/>
			<polygon class="st56" points="1207.66,1310.45 1137.19,1482.04 1065.7,1239.99 1121.87,1295.13 			"/>
			<polygon class="st57" points="1065.7,1239.99 958.47,1341.09 872.68,1306.38 			"/>
			<polygon class="st58" points="872.68,1306.38 775.02,1425.86 697.02,1341.09 			"/>
			<polygon class="st59" points="1016.68,1513.69 980.94,1540.24 864.51,1431.99 958.47,1341.09 			"/>
			<polygon class="st60" points="1386.64,1087.56 1332.26,1204.24 1245.7,1123.56 			"/>
			<polygon class="st61" points="1502.81,1239.99 1464,1297.18 1332.26,1204.24 1386.64,1087.56 			"/>
			<polygon class="st62" points="1579.84,1222.62 1551.83,1350.29 1464,1297.18 1502.81,1239.99 			"/>
			<polygon class="st63" points="1579.84,1058.96 1410.38,1004.84 1476.11,912.12 1476.12,912.12 			"/>
			<polygon class="st64" points="1332.26,1204.24 1196.15,1204.24 1245.7,1123.56 			"/>
			<polygon class="st65" points="1253.62,1251.22 1207.66,1310.45 1121.87,1295.13 1065.7,1239.99 1196.15,1204.24 			"/>
			<path class="st66" d="M864.51,1431.99c0,0-23.19,56.34-37.3,87.77c-11.63-1.07-23.45-1.96-35.39-2.6l-16.8-91.3L864.51,1431.99z"
				/>
			<polygon class="st67" points="958.47,1341.09 864.51,1431.99 872.68,1306.38 			"/>
			<path class="st68" d="M1071.83,1548.32c-19.36,7.43-29.62,12.35-29.62,12.35s-97.84-30.08-215-40.91
				c14.11-31.43,37.3-87.77,37.3-87.77l116.43,108.25l35.74-26.55l55.13-83.22L1071.83,1548.32z"/>
			<path class="st69" d="M1137.19,1482.04l-34.25,55.12c-12.1,4.08-22.51,7.87-31.11,11.17l-0.02-117.85L1137.19,1482.04z"/>
			<polygon class="st70" points="872.68,1306.38 864.51,1431.99 775.02,1425.86 			"/>
		</g>
	</g>
	<g>
		<path class="st71" d="M1181.11,427.56c-11.74-5.11-25.74-11.12-58.73-7.15c-10.53,1.27-19.93,5.66-25.92,11.1
			c-11.4-17.72-25.15-6.49-6.93-20.46c10.36-7.94,23.18-13.26,33.29-16.57C1162.45,396.46,1181.11,427.56,1181.11,427.56z"/>
		<g>
			<path class="st72" d="M1067.41,463.13c-16.55,2.71-166.83,55.67-169.17,56.5c25.09-14.15,144.32-70.79,144.32-70.79
				C1053.11,463.13,1067.41,463.13,1067.41,463.13z"/>
			<path class="st72" d="M1066.04,470.63c-4.76,11.92-18.04,18.73-29.57,21.11c-10.82,2.23-106.62,24.86-118.35,27.63
				C959.02,509.23,1066.04,470.63,1066.04,470.63z"/>
		</g>
		<g>
			<path class="st73" d="M1077.62,745.01c-2.21-96.45,115.23-151.49,112.94-225.78c0,0,10.02-58.73-58.22-58.48
				c-45.62,0.19-49.19-17.13-35.88-29.24c-11.4-17.71-25.15-6.49-6.93-20.45c10.36-7.94,23.18-13.26,33.29-16.57
				c-1.31-0.09-2.65-0.11-4.01-0.11c-15.26,0-28.2,4.3-38.8,10.57c-18.85,11.15-30.3,28.49-34.22,38.95
				c0,0-157.28,64.85-172.6,89.87c0,0,146.56-29.09,167.49-35.22c15.47-4.54,28.99-0.42,39.31,2.03c0,0,0.01,0,0.02,0
				c3.65,0.87,6.89,1.54,9.69,1.54c10.73,0,45.96-5.11,45.96,26.56c0,22.38-21.2,48.09-55.66,82.92
				c-14.26,14.4-30.78,30.36-49.02,48.3c-59.16,58.2-80.09,137.55-60.2,210.56c1.06,3.89,2.23,7.73,3.52,11.58
				c0,0-131.49-28.1-189.7-170.56c0,0-11.95-30.15-20.51-57.03c-11.19-35.1-34.9-63.49-110.98-93.6c0,0-132.77-45.97-200.17-102.14
				c0,0-1.53,31.16,27.57,65.87c0,0-196.08-90.38-405.95-235.9c0,0-9.2,107.22,177.7,209.87c86.49,47.49,137.55,75.31,167.44,91.49
				c-2.28-0.6-148.88-39.23-320.12-144.6c0,0-12.26,94.98,167.49,163.41c87.06,33.14,142.98,51.19,177.49,60.98
				c0,0-162.18-18.09-293.92-75.28c0,0,7.15,87.83,133.79,111.32c100.24,18.58,165.93,28.87,188.96,32.33
				c0,0-143.77,5.44-262.49-21.35c0,0,6.89,77.35,136.34,81.19c60.04,1.77,121.08-2.55,169.27-7.69c0,0-32.17,19.94-202.98,34.5
				c0,0,16.85,54.38,111.07,36c51.84-10.12,96.03-19.54,125.3-25.97c0,0-65.56,38.22-177.39,61.19c0,0,25.28,51.32,98.81,26.05
				c37.31-12.82,77.04-31.18,107.13-46.13c-0.42,0.51-28.36,33.51-140.83,85.95c0,0,36,43.67,101.11-4.58
				c23.48-17.42,48.55-35.22,71.02-50.86c0,0-30.43,50.08-106.26,100.63c0,0,7.23,5.39,31.84,10.06
				c13.05-24.09,29.09-46.2,47.88-65.77c28.89-30.11,63.45-53.54,102.71-69.67c40.71-16.7,85.68-25.19,133.66-25.19
				c4.87,0,9.73,0.12,14.55,0.34c-54.83-43.58-85.07-77.9-101.62-116.32c-21.44-49.78-28.85-69.27-57.95-98.38
				c-28.88-28.88-146.24-94.38-148.07-95.39c1.52,0.65,98.94,42.94,117.94,50.55c19.15,7.65,65.1,25.27,88.08,78.89
				s37.53,123.31,144,178.46c9.07,4.71,17.49,9.06,25.32,13.12c82.71,42.79,98.98,50.96,99.52,51.22c-0.05-0.11-0.45-0.94-1.12-2.42
				c-2.76-6.19-10.08-23.83-15.38-48c-10.17-46.32-12.92-116.62,37.95-176.28c-0.46,1.25-34.47,93.8,57.2,146.35
				c22.98,13.18,53.86,23.84,95.15,29.93c4.56,0.66,9.25,1.27,14.07,1.82c3.44,0.41,6.95,0.78,10.53,1.11
				C1199.75,871.56,1080,848.74,1077.62,745.01z M1036.47,491.74c-10.74,2.2-105.13,24.51-118.06,27.56
				c41.11-10.25,147.63-48.67,147.63-48.67C1061.28,482.55,1048,489.36,1036.47,491.74z M898.24,519.63
				c25.09-14.14,144.32-70.78,144.32-70.78c10.55,14.28,24.85,14.28,24.85,14.28C1050.86,465.85,900.58,518.81,898.24,519.63z
				 M684.51,859.06c0,0-30.89,33.69-68.93,26.04c-38.05-7.66-47.49-54.9-18.23-28.35C626.61,883.31,684.51,859.06,684.51,859.06z
				 M665.87,825.61c-25.02,16.08-76.25,19.25-105.36,5.68c-37.36-17.42-41.95-71.55-12.34-34.28
				C577.79,834.29,665.87,825.61,665.87,825.61z M533.96,776.68c-50.77-16.37-84.09-108.1-38.89-54.54
				c45.19,53.55,146.29,56.74,146.29,56.74C600,787.31,575.15,789.94,533.96,776.68z M456,668.58
				c-22.21-23.73-27.24-82.75,7.66-25.27c34.9,57.46,148.6,78.13,148.6,78.13C519.58,727.56,478.21,692.33,456,668.58z
				 M605.33,668.57c-226.69-34.46-193.75-156.24-193.75-156.24C455.65,619.5,603.03,667.82,605.33,668.57z"/>
			<g>
				<path class="st74" d="M684.51,859.06c0,0-30.89,33.69-68.93,26.04c-38.05-7.66-47.49-54.9-18.23-28.35
					C626.61,883.31,684.51,859.06,684.51,859.06z"/>
				<path class="st74" d="M665.87,825.61c-25.02,16.08-76.25,19.25-105.36,5.68c-37.36-17.42-41.95-71.55-12.34-34.28
					C577.79,834.29,665.87,825.61,665.87,825.61z"/>
				<path class="st74" d="M641.36,778.88c-41.36,8.43-66.21,11.06-107.4-2.2c-50.77-16.37-84.09-108.1-38.89-54.54
					C540.26,775.69,641.36,778.88,641.36,778.88z"/>
				<path class="st74" d="M612.26,721.44c-92.68,6.12-134.05-29.11-156.26-52.86c-22.21-23.73-27.24-82.75,7.66-25.27
					C498.56,700.77,612.26,721.44,612.26,721.44z"/>
				<path class="st74" d="M605.33,668.57c-226.69-34.46-193.75-156.24-193.75-156.24C455.65,619.5,603.03,667.82,605.33,668.57z"/>
			</g>
			<path class="st73" d="M1740.3,590.04c29.89-16.18,80.96-44,167.45-91.49c186.89-102.65,177.7-209.87,177.7-209.87
				c-209.87,145.52-405.96,235.9-405.96,235.9c29.11-34.71,27.58-65.87,27.58-65.87c-67.41,56.17-200.17,102.14-200.17,102.14
				c-76.09,30.11-99.8,58.5-110.98,93.6c-8.57,26.88-20.51,57.03-20.51,57.03c-58.22,142.46-179.27,167.68-179.27,167.68
				c32.28,1.51,78.29-19.74,87.35-24.45c106.47-55.15,121.02-124.84,144-178.46s68.94-71.24,88.09-78.89
				c19-7.61,116.41-49.9,117.93-50.55c-1.83,1.01-119.18,66.51-148.06,95.39c-29.11,29.11-36.51,48.6-57.96,98.38
				c-16.55,38.42-46.79,72.74-101.62,116.32c4.83-0.22,9.68-0.34,14.56-0.34c47.98,0,92.94,8.49,133.65,25.19
				c39.26,16.13,73.82,39.56,102.72,69.67c18.79,19.57,34.82,41.68,47.88,65.77c24.6-4.67,31.83-10.06,31.83-10.06
				c-75.83-50.55-106.25-100.63-106.25-100.63c22.46,15.64,47.54,33.44,71.02,50.86c65.1,48.25,101.1,4.58,101.1,4.58
				c-112.47-52.44-140.41-85.44-140.83-85.95c30.09,14.95,69.82,33.31,107.13,46.13c73.53,25.27,98.81-26.05,98.81-26.05
				c-111.83-22.97-177.38-61.19-177.38-61.19c29.26,6.43,73.45,15.85,125.3,25.97c94.21,18.38,111.06-36,111.06-36
				c-170.81-14.56-202.98-34.5-202.98-34.5c48.19,5.14,109.23,9.46,169.28,7.69c129.44-3.84,136.34-81.19,136.34-81.19
				c-118.73,26.79-262.49,21.35-262.49,21.35c23.02-3.46,88.71-13.75,188.96-32.33c126.63-23.49,133.78-111.32,133.78-111.32
				c-131.74,57.19-293.92,75.28-293.92,75.28c34.52-9.79,90.43-27.84,177.5-60.98c179.74-68.43,167.49-163.41,167.49-163.41
				C1889.18,550.81,1742.58,589.44,1740.3,590.04z M1748.43,512.33c0,0,32.93,121.78-193.76,156.24
				C1556.97,667.82,1704.35,619.5,1748.43,512.33z M1544.43,885.1c-38.05,7.65-68.94-26.04-68.94-26.04s57.9,24.25,87.16-2.31
				C1591.92,830.2,1582.47,877.44,1544.43,885.1z M1599.49,831.29c-29.11,13.57-80.34,10.4-105.36-5.68c0,0,88.08,8.68,117.7-28.6
				C1641.45,759.74,1636.85,813.87,1599.49,831.29z M1626.04,776.68c-41.19,13.26-66.04,10.63-107.4,2.2
				c0,0,101.11-3.19,146.3-56.74C1710.13,668.58,1676.82,760.31,1626.04,776.68z M1704,668.58
				c-22.21,23.75-63.57,58.98-156.25,52.86c0,0,113.7-20.67,148.59-78.13C1731.24,585.83,1726.21,644.85,1704,668.58z"/>
			<g>
				<path class="st74" d="M1544.43,885.1c-38.05,7.65-68.94-26.04-68.94-26.04s57.9,24.25,87.16-2.31
					C1591.92,830.2,1582.47,877.44,1544.43,885.1z"/>
				<path class="st74" d="M1599.49,831.29c-29.11,13.57-80.34,10.4-105.36-5.68c0,0,88.08,8.68,117.7-28.6
					C1641.45,759.74,1636.85,813.87,1599.49,831.29z"/>
				<path class="st74" d="M1626.04,776.68c-41.19,13.26-66.04,10.63-107.4,2.2c0,0,101.11-3.19,146.3-56.74
					C1710.13,668.58,1676.82,760.31,1626.04,776.68z"/>
				<path class="st74" d="M1704,668.58c-22.21,23.75-63.57,58.98-156.25,52.86c0,0,113.7-20.67,148.59-78.13
					C1731.24,585.83,1726.21,644.85,1704,668.58z"/>
				<path class="st74" d="M1554.67,668.57c2.3-0.75,149.68-49.07,193.76-156.24C1748.43,512.33,1781.36,634.11,1554.67,668.57z"/>
			</g>
			
				<ellipse transform="matrix(0.783 -0.6221 0.6221 0.783 -32.8836 785.4393)" class="st73" cx="1109.14" cy="439.84" rx="9.32" ry="8.09"/>
			<path class="st73" d="M1186.98,441.35c0,0,48.51,54.13,0,129.19C1186.98,570.54,1256.17,492.93,1186.98,441.35z"/>
		</g>
	</g>
	<g>
		<path class="st73" d="M1415.49,1373.08c-3.83,4.47,1.02,5.23-5.23,5.87c-4.09,0.42-10.29,0.72-14.11,0.89
			c0.81-1.89,1.22-3.9,1.04-6.06c-0.27-3.28-1.28-4.62-3.2-6.5c0.38-5.91,0.39-11.78-0.96-12.33c-2.81-1.15-2.81-1.15-2.81-1.15
			l-0.25-6.13c0,0,7.28,2.17,7.79-2.42c0.51-4.6,2.81-11.62,1.53-14.81c-1.1-2.75-4.39-6.72-10.01-7.69l-0.05-0.23
			c0,0-17.88-7.15-27.04,35.93c-0.26,1.21-0.51,2.37-0.76,3.51c-5.04,5.52-11.24,11.34-12.82,13.28c-2.3,2.81-3.58,4.85,0,9.7
			c1.07,1.46,2.86,3.44,4.84,5.51c-4.58,12.16-7.56,12.95-7.56,12.95s4.28,0.53,8.71-3.41s0,5.63,0,5.63s3.08,0.54,6.59-0.23
			c-1.2,3.32-1.96,7.64-0.09,10.99c3.22,5.79,5.15,9.95,5.7,16.9s0.65,14.97-5.34,14.44c0,0-13.41,1.55-19.54,3.34
			c-6.13,1.79-4.6-9.01-8.17-5.14s-15.57,30.68-15.57,30.68s4.6-4.34,11.23-7.91s7.15-11.49,7.15-11.49s17.19,1.06,24.48,2.02
			c-0.66,0.7-0.9,1.64-0.48,3.08c1.78,6.13-3.07,9.45-3.83,14.3c-0.77,4.85-1.1,8,3.83,7.66c4.93-0.34,1.36-5.11,8.34-12.94
			c6.98-7.83,12.09-15.15,19.23-15.15s26.38-16.51,28.77-17.7c2.38-1.19,4.43-4.26-0.68-10.04c-5.11-5.79-17.7-20.26-29.28-22.98
			c0,0,1.3-10.57,0.45-15.74c0.75-0.56,1.49-1.13,2.2-1.72c6.27-0.72,22.58-2.88,30.53-6.75
			C1430.05,1376.41,1419.32,1368.62,1415.49,1373.08z M1354.98,1378.06c1.05-0.74,2.06-1.43,3.01-2.06
			c-1.03,3.79-2.01,7.06-2.94,9.87C1352.88,1383.21,1351.92,1380.22,1354.98,1378.06z M1397.81,1434.99
			c2.41,1.11-9.19,6-17.48,11.23c0.08-5.61,0.16-10.4,0.88-13.27c1.02-4.09,1.02-7.15,1.02-7.15S1394.49,1433.46,1397.81,1434.99z"
			/>
		<path class="st73" d="M1294.29,1388.2c9.79-5.17-1.18-12.61-4.86-8.02s1.19,5.2-5.04,6.04c-6.23,0.84-17.45,1.59-17.45,1.59
			s2.29-23.96-0.56-25.02c-2.84-1.06-2.84-1.06-2.84-1.06l-0.45-6.12c0,0,7.34,1.93,7.7-2.68c0.36-4.61,2.43-11.7,1.05-14.85
			c-1.38-3.15-5.75-7.86-13.14-7.49c-7.4,0.37-12.4,7.68-11.96,13.29c0.44,5.61,4.88,8.65,4.71,11.21
			c-0.17,2.56-2.07,3.01-2.07,3.01s-5.14-0.85-9.01,5.66c-3.88,6.51-15.51,17.88-17.72,20.76c-2.21,2.88-3.41,4.96,0.32,9.7
			c3.73,4.73,15.56,15.08,15.56,15.08s-0.56,6.35-0.96,13.46l-65.39,72.23c-0.56,0.61-0.51,1.56,0.11,2.12
			c0.29,0.26,0.65,0.39,1.01,0.39c0.41,0,0.82-0.17,1.11-0.49l62.93-69.51c-0.02,0.37-0.03,0.74-0.04,1.1
			c-0.34,9.02,0.68,11.4,1.7,16.51c1.02,5.11,0,6.64-7.83,14.64c-7.83,8-11.06,12.43-12.94,17.02s-2.89,9.7-8.17,12.26
			s-7.15,3.57-3.4,7.15c3.74,3.57,11.57,18.38,13.28,11.06c1.7-7.32-5.96-13.45-1.36-17.53c4.6-4.09,32.12-29.11,32.91-35.4
			c0.79-6.3,5.39-18.72,5.9-19.91c0.51-1.19,14.3,16,19.06,18.55c0,0-2.04,21.79-0.17,26.38s4.09,4.94,4.09,10.38
			c0,5.45-2.04,5.28,3.74,4.26c5.79-1.02,8.68-3.57,12.6-2.38c3.91,1.19-4.6-7.49-8-6.47c-0.22,0.07-0.43,0.09-0.62,0.07l5.73-96.71
			C1293.95,1388.37,1294.12,1388.28,1294.29,1388.2z M1242.18,1396.28c-0.57,2.06-3.74,2.8-3.82,4.34
			c-0.08,1.54-16.48-8.02-9.25-13.49c7.23-5.47,12.51-8.2,12.51-8.2S1242.75,1394.22,1242.18,1396.28z M1287.45,1444.72
			c-0.46-1.42-1.1-2.64-2-3.54c-5.11-5.11-22.13-27.57-22.81-28.43c-0.68-0.85,3.17-14.06,3.34-17.12c0,0,14.59-1.79,24.72-5.81
			L1287.45,1444.72z"/>
		<path class="st73" d="M1096.85,1529.27c0,0-2.55-18.38-2.04-28.08c0.51-9.7,1.02-17.11-3.83-22.21
			c-4.85-5.11-15.83-25.02-21.19-26.55c-5.36-1.53-13.02-5.11-10.21-9.7c2.81-4.6,5.11-18.38,5.11-18.38s15.44,0.77,21-2.04
			c5.56-2.81,12.36-4.81,12.36-4.81c10.17-4.38-0.18-12.66-4.21-8.38c-4.03,4.28,0.78,5.28-5.5,5.62
			c-6.28,0.35-17.52,0.21-17.52,0.21s4.17-23.7,1.42-24.98c-2.75-1.28-2.75-1.28-2.75-1.28l0.03-6.13c0,0,7.17,2.51,7.89-2.06
			s3.35-11.47,2.22-14.72c-1.13-3.25-5.11-8.29-12.51-8.51c-7.4-0.22-12.96,6.68-12.97,12.3c-0.01,5.62,4.18,9.01,3.81,11.55
			c-0.37,2.54-2.3,2.83-2.3,2.83s-5.05-1.26-9.43,4.93c-4.38,6.19-16.88,16.59-19.3,19.29c-2.43,2.7-3.8,4.68-0.45,9.69
			c3.34,5.01,14.32,16.26,14.32,16.26s-7.5,11.93-8.01,21.63c-0.51,9.7,1.41,11.49-1.72,17.36s-4.41,7.66-4.41,7.66
			s-21.7-4.34-29.87,0c-8.17,4.34-15.57,5.11-15.57,5.11s-0.26-7.4-3.83-8.17c-3.57-0.77-8.68,15.06-12.51,20.43
			c-3.83,5.36-4.6,14.55,0,14.3c4.6-0.26,3.32-7.91,8.43-11.49s8.43-7.4,8.43-7.4s37.02,0,43.15,2.81
			c6.13,2.81,9.96-1.02,11.49-3.32c1.53-2.3,15.32-18.89,15.83-22.72s2.81-3.06,2.81-3.06s13.53,13.02,16.6,14.55
			c3.06,1.53,8.17,4.85,8.17,4.85s-4.09,10.21-0.77,17.11c3.32,6.89,8.68,19.91,9.96,25.02c1.28,5.11,2.3,12,2.3,12
			s21.7-6.13,24.77-5.62C1119.06,1535.65,1109.1,1528.5,1096.85,1529.27z M1045.45,1421.41c-0.73,2.01-3.95,2.5-4.15,4.02
			c-0.2,1.52-15.8-9.3-8.16-14.18c7.64-4.88,13.11-7.18,13.11-7.18S1046.18,1419.4,1045.45,1421.41z"/>
		<path class="st73" d="M935.18,1415.06c-4.07,4.25,0.73,5.28-5.55,5.58c-6.28,0.29-17.52,0.06-17.52,0.06s0.35-1.91,0.8-4.68
			c3.55-1.32,2.68-6.41,1.38-10.32c0.5-4.99,0.6-9.43-0.55-9.97c-2.74-1.3-2.74-1.3-2.74-1.3l0.08-6.13c0,0,7.15,2.57,7.91-1.99
			c0.76-4.56,3.44-11.45,2.34-14.7c-1.1-3.26-5.04-8.33-12.44-8.61c0,0-7.99-5.9-17.35,12.15c-9.36,18.04-16,18.72-16,18.72
			s4.68,0.17,7.62,0s-1.85,2-3.16,1.87c-1.31-0.13,1.75,0.7,6.48,0.29c-5.18,6.2-15.97,15.08-18.21,17.54
			c-2.45,2.68-3.84,4.65-0.53,9.69c3.3,5.04,14.18,16.38,14.18,16.38c-0.11,0.11-0.25,0.29-0.41,0.49l-59.06,60.27
			c-0.58,0.59-0.57,1.54,0.02,2.12c0.29,0.29,0.67,0.43,1.05,0.43c0.39,0,0.78-0.15,1.07-0.45l53.35-54.45
			c-0.54,2.44-0.58,5.03,0.51,7.28c2.89,5.96,4.6,10.21,4.77,17.19s-0.17,14.98-6.13,14.13s-21.28,14.81-24.51,15.83
			c-3.23,1.02-9.36-1.02-4.94,8.17c4.43,9.19,10.55,14.98,10.55,14.98c2.38-3.92,0-17.02,0-17.02c4.94-4.26,26.04-13.45,33.87-15.32
			c7.83-1.87,6.98-24.17,6.98-24.17s1.87,0.51,5.69,4.09s13.55,13.11,6.91,15.83s-5.11,33.7-5.11,33.7c-2.38,3.23-1.8,9.02-1.8,9.02
			c3.99-1.02,19.67,1.02,19.67,1.02c1.15-3.59-7.66-5.73-10.42-7.95c0.31-0.2,0.55-0.5,0.64-0.89l8.58-35.57
			c0.98-3.12,1.78-6.22,2.21-9.17l13.39-55.51c0.17-0.07,0.34-0.13,0.5-0.2C949.53,1419.17,939.25,1410.81,935.18,1415.06z
			 M874.49,1416.7c7.68-4.82,13.17-7.07,13.17-7.07s-0.21,15.33-0.96,17.34s-3.97,2.47-4.18,3.99
			C882.32,1432.48,866.81,1421.52,874.49,1416.7z M924.73,1469.34c-2.95-8.25-11.41-16.69-16.81-20.16
			c-6.64-4.26-6.43-7.21-6.43-7.21c2.54-6.64,4.44-13.31,4.44-13.31s18.31-0.71,29.55-3.88L924.73,1469.34z"/>
		<path class="st73" d="M783.06,1394.84c-3.83,4.47,1.02,5.23-5.23,5.87c-6.26,0.64-17.49,1.02-17.49,1.02s3.06-23.87,0.26-25.02
			c-2.81-1.15-2.81-1.15-2.81-1.15l-0.26-6.13c0,0,7.28,2.17,7.79-2.43s2.81-11.62,1.53-14.81c-1.28-3.19-5.49-8.04-12.89-7.91
			c-7.4,0.13-12.64,7.28-12.38,12.89c0.26,5.62,4.6,8.81,4.34,11.36c-0.26,2.55-2.17,2.94-2.17,2.94s-5.11-1.02-9.19,5.36
			c-4.09,6.38-16.09,17.36-18.38,20.17c-2.3,2.81-3.57,4.85,0,9.7s15.06,15.57,15.06,15.57s-1.15,6.51-4.47,9.96
			c-3.32,3.45-2.3,9.83,1.02,13.66s3.32,14.81,2.43,17.74c-0.89,2.94-2.94,5.74-2.94,5.74s-5.87-2.81-15.7-2.55
			c-9.83,0.26-16.98,8.68-22.34,7.15c-5.36-1.53-5.49-6.89-9.7-7.92c-4.21-1.02-4.85,9.45-5.87,13.66c-1.02,4.21-6,9.19-5.62,13.66
			s3.32,9.45,6.13,2.94c2.81-6.51,9.06-9.7,9.57-12.51c0.51-2.81,23.62-1.91,34.72-1.28s17.74,1.91,20.04-1.79
			c2.3-3.7,6.89-11.23,6.26-26.17c0,0,2.55-5.62,13.4,1.79c10.85,7.4,11.36,8.43,8.68,11.62c-2.68,3.19-8.94,13.91-10.85,25.02
			c-1.91,11.11-7.28,7.02-6.77,11.87c0.51,4.85,4.6,3.57,7.91,9.83h20.68c0,0-2.68-6.26-10.85-8.04
			c-8.17-1.79-2.94-14.94-0.51-17.49s16.09-18.13,15.7-26.17c-0.38-8.04-19.15-25.28-29.49-30c0,0-3.96-2.68-1.79-9.45
			c2.17-6.77,3.7-13.53,3.7-13.53s23.11-2.17,33.06-7.02C797.61,1398.16,786.89,1390.37,783.06,1394.84z M735.32,1409.39
			c-0.64,2.04-3.83,2.68-3.96,4.21s-16.21-8.55-8.81-13.79c7.4-5.23,12.77-7.79,12.77-7.79S735.95,1407.35,735.32,1409.39z"/>
	</g>
	<g>
		<path class="st74" d="M1074,1167.69c-4.3-4.5-9.5-8-15.44-10.41c-5.97-2.42-12.59-3.64-19.67-3.64c-7.08,0-13.7,1.23-19.67,3.64
			c-5.95,2.41-11.14,5.91-15.44,10.41c-4.31,4.51-7.7,10.03-10.1,16.42c-2.4,6.42-3.62,13.73-3.62,21.74
			c0,7.5,1.22,14.55,3.62,20.97c2.39,6.4,5.8,11.99,10.11,16.63c4.31,4.63,9.51,8.3,15.47,10.9c5.96,2.6,12.56,3.91,19.62,3.91
			c7.06,0,13.66-1.32,19.62-3.91c5.96-2.6,11.16-6.26,15.47-10.9c4.32-4.64,7.72-10.24,10.11-16.63c2.4-6.42,3.62-13.47,3.62-20.97
			c0-8.01-1.22-15.33-3.62-21.74C1081.71,1177.73,1078.31,1172.21,1074,1167.69z M1051.09,1220.19c-2.82,3.68-6.93,5.54-12.2,5.54
			c-5.27,0-9.38-1.87-12.2-5.54c-2.7-3.51-4.07-8.34-4.07-14.33c0-5.05,1.31-9.57,3.9-13.45c2.76-4.14,6.92-6.23,12.36-6.23
			c5.44,0,9.6,2.1,12.36,6.23c2.59,3.89,3.9,8.41,3.9,13.45C1055.16,1211.85,1053.79,1216.67,1051.09,1220.19z"/>
		<path class="st74" d="M1213.78,1131.39c-3.31-2.86-7.14-5.42-11.38-7.61c-4.25-2.19-9.06-3.96-14.28-5.28
			c-5.23-1.31-11.09-1.98-17.44-1.98c-10.02,0-19.2,1.81-27.28,5.37c-8.09,3.57-15.13,8.54-20.92,14.79
			c-5.8,6.25-10.34,13.81-13.5,22.45c-3.17,8.67-4.78,18.25-4.78,28.46c0,10.99,1.61,21,4.78,29.73
			c3.16,8.71,7.64,16.23,13.32,22.35c5.66,6.11,12.53,10.85,20.43,14.08c7.93,3.25,16.73,4.9,26.17,4.9
			c12.45,0,23.41-2.47,32.59-7.35c8.67-4.61,15.9-10.39,21.5-17.2l-21.51-23.96c-3.96,3.95-8.17,7.17-12.52,9.6
			c-5.03,2.81-11.18,4.24-18.27,4.24c-5.04,0-9.58-0.95-13.52-2.82c-3.93-1.87-7.34-4.49-10.13-7.81
			c-2.77-3.29-4.91-7.21-6.35-11.65c-1.43-4.38-2.15-9.14-2.15-14.12c0-4.99,0.72-9.71,2.15-14.04c1.44-4.37,3.57-8.25,6.34-11.54
			c2.79-3.31,6.19-5.94,10.12-7.81c3.94-1.87,8.48-2.82,13.52-2.82c5.84,0,11.3,1.1,16.23,3.28c4.33,1.91,8.29,4.74,11.81,8.42
			l22.81-23.81C1219.25,1136.52,1216.65,1133.87,1213.78,1131.39z"/>
		<path class="st74" d="M1283.46,1185.5c2.11-0.72,4.24-1.08,6.35-1.08c2.25,0,4.29,0.18,6.09,0.52c0.96,0.19,1.93,0.41,2.91,0.66
			l3.78-31.44c-0.5-0.09-1.05-0.18-1.63-0.26c-1.33-0.18-3.16-0.27-5.44-0.27c-4.06,0-8.11,1.01-12.03,2.99
			c-3.83,1.94-6.64,5.08-8.61,9.6l-3.83,8.82v-18.7h-29.71v99.19h30.78v-51.44c0-3.48,0.5-6.48,1.48-8.91
			c1-2.46,2.35-4.52,4.04-6.13C1279.33,1187.44,1281.29,1186.25,1283.46,1185.5z"/>
		<path class="st74" d="M1396.09,1167.69c-4.3-4.5-9.5-8-15.44-10.41c-5.97-2.42-12.59-3.64-19.67-3.64
			c-7.08,0-13.7,1.23-19.67,3.64c-5.95,2.41-11.14,5.91-15.44,10.41c-4.31,4.51-7.71,10.03-10.1,16.42
			c-2.4,6.42-3.62,13.73-3.62,21.74c0,7.5,1.22,14.55,3.62,20.97c2.39,6.4,5.8,11.99,10.11,16.63c4.31,4.63,9.51,8.3,15.47,10.9
			c5.96,2.6,12.56,3.91,19.62,3.91c7.06,0,13.66-1.32,19.62-3.91c5.96-2.6,11.16-6.26,15.48-10.9c4.32-4.64,7.72-10.24,10.11-16.63
			c2.4-6.42,3.62-13.47,3.62-20.97c0-8.01-1.22-15.33-3.62-21.74C1403.79,1177.73,1400.39,1172.21,1396.09,1167.69z
			 M1373.17,1220.19c-2.82,3.68-6.93,5.54-12.2,5.54c-5.27,0-9.38-1.87-12.2-5.54c-2.7-3.51-4.07-8.34-4.07-14.33
			c0-5.04,1.31-9.57,3.9-13.45c2.76-4.14,6.92-6.23,12.36-6.23c5.44,0,9.6,2.1,12.36,6.23c2.59,3.89,3.9,8.41,3.9,13.45
			C1377.24,1211.85,1375.87,1216.67,1373.17,1220.19z"/>
		<path class="st74" d="M1461.02,1258.08c5.9,0,11.27-0.9,15.96-2.69c4.66-1.77,8.67-4.22,11.91-7.27
			c3.23-3.03,5.74-6.63,7.46-10.69c1.73-4.07,2.61-8.49,2.61-13.11c0-7.73-1.95-13.78-5.8-17.98c-4-4.35-10.02-8.14-17.9-11.25
			c-3.5-1.27-6.44-2.39-8.68-3.32c-2.25-0.93-4.07-1.78-5.4-2.54c-1.55-0.88-2.59-1.77-3.19-2.7c-0.62-0.96-0.94-1.98-0.94-3.02
			c0-2.48,1.16-4.34,3.27-5.24c1.63-0.7,3.72-1.03,6.4-1.03c3.32,0,6.8,0.7,10.36,2.08c2.66,1.04,5.06,2.29,7.17,3.73l11.58-21.58
			c-3.06-1.85-6.85-3.57-11.3-5.12c-5.18-1.79-12.01-2.71-20.3-2.71c-6.17,0-11.78,0.82-16.67,2.43c-4.85,1.6-9.02,3.8-12.38,6.55
			c-3.33,2.72-5.91,5.93-7.67,9.53c-1.76,3.59-2.65,7.41-2.65,11.36c0,7.27,1.83,13.26,5.45,17.8c3.7,4.64,10.21,8.95,19.37,12.81
			c3.22,1.3,5.94,2.46,8.08,3.42c2.24,1.02,3.98,1.92,5.31,2.75c1.5,0.93,2.57,1.88,3.26,2.9c0.77,1.11,1.16,2.34,1.16,3.66
			c0,2.48-1.02,4.47-2.95,5.75c-1.72,1.14-4.26,1.69-7.79,1.69c-2.06,0-4.24-0.28-6.46-0.84c-2.17-0.54-4.38-1.29-6.56-2.25
			c-2.16-0.94-4.21-2.04-6.09-3.27c-1.14-0.75-2.22-1.53-3.23-2.33l-12.51,20.45c4.5,3.69,9.72,6.59,15.54,8.63
			C1443.84,1256.94,1451.78,1258.08,1461.02,1258.08z"/>
		<path class="st74" d="M1549.83,1258.08c5.9,0,11.27-0.9,15.96-2.69c4.66-1.77,8.67-4.22,11.91-7.27
			c3.23-3.03,5.74-6.63,7.46-10.69c1.73-4.07,2.61-8.49,2.61-13.11c0-7.73-1.95-13.78-5.8-17.98c-4-4.35-10.02-8.14-17.9-11.25
			c-3.5-1.27-6.44-2.39-8.68-3.32c-2.25-0.93-4.07-1.78-5.4-2.54c-1.55-0.88-2.59-1.77-3.19-2.7c-0.62-0.96-0.94-1.98-0.94-3.02
			c0-2.48,1.16-4.34,3.27-5.24c1.63-0.7,3.72-1.03,6.4-1.03c3.32,0,6.8,0.7,10.36,2.08c2.66,1.04,5.06,2.29,7.17,3.73l11.58-21.58
			c-3.06-1.85-6.85-3.57-11.3-5.12c-5.18-1.79-12.01-2.71-20.3-2.71c-6.17,0-11.78,0.82-16.67,2.43c-4.85,1.6-9.02,3.8-12.38,6.55
			c-3.33,2.72-5.91,5.93-7.67,9.53c-1.76,3.59-2.65,7.41-2.65,11.36c0,7.27,1.83,13.26,5.45,17.8c3.7,4.64,10.21,8.95,19.37,12.81
			c3.22,1.3,5.94,2.46,8.08,3.42c2.24,1.02,3.98,1.92,5.31,2.75c1.5,0.93,2.57,1.88,3.26,2.9c0.77,1.11,1.16,2.34,1.16,3.66
			c0,2.48-1.02,4.47-2.95,5.75c-1.72,1.14-4.26,1.69-7.79,1.69c-2.06,0-4.24-0.28-6.46-0.84c-2.17-0.54-4.38-1.29-6.56-2.25
			c-2.16-0.94-4.21-2.04-6.09-3.27c-1.14-0.75-2.22-1.53-3.23-2.33l-12.51,20.45c4.5,3.69,9.72,6.59,15.54,8.63
			C1532.65,1256.94,1540.59,1258.08,1549.83,1258.08z"/>
		<rect x="709" y="1156.36" class="st74" width="31.67" height="99.19"/>
		<path class="st74" d="M921.54,1254.74c4.13,2.34,9.11,3.53,14.8,3.53c4.68,0,9.29-1.02,13.71-3.03c4.41-2.01,8.44-5.11,11.98-9.2
			c3.55-4.12,6.46-9.51,8.62-16.04c2.18-6.57,3.29-14.5,3.29-23.56c0-9.32-1.11-17.42-3.29-24.06c-2.17-6.59-5.08-12.09-8.64-16.34
			c-3.53-4.22-7.56-7.37-11.96-9.38c-4.41-2.01-9.02-3.03-13.71-3.03c-5.66,0-10.65,1.31-14.82,3.88c-4.28,2.64-7.57,5.5-9.78,8.52
			l-3.61,4.92v-54.44h-31.67v139.03h31.67v-15.12l3.67,5.52C914.1,1249.43,917.38,1252.38,921.54,1254.74z M907.59,1205.28
			c0-6.07,1.56-10.82,4.64-14.1c3.11-3.32,7.21-5,12.16-5c5.11,0,9.31,1.91,12.49,5.66c3.1,3.66,4.66,8.64,4.66,14.8
			c0,5.96-1.7,10.69-5.04,14.04c-3.35,3.36-7.6,5.06-12.65,5.06c-5.16,0-9.23-1.93-12.12-5.75
			C908.99,1216.35,907.59,1211.4,907.59,1205.28z"/>
		<polygon class="st74" points="681.99,1255.55 681.99,1120.02 651.21,1120.02 651.21,1208.3 614.53,1120.02 572.21,1120.02 
			572.21,1255.55 602.98,1255.55 602.98,1168.29 641.07,1255.55 		"/>
		<path class="st74" d="M742.02,1119.82c-0.74-2.19-1.87-4.15-3.35-5.82c-1.46-1.65-3.36-2.98-5.63-3.96
			c-2.3-0.99-5.06-1.49-8.21-1.49c-3.15,0-5.92,0.5-8.22,1.49c-2.27,0.98-4.16,2.31-5.62,3.96c-1.48,1.67-2.61,3.63-3.35,5.82
			c-0.76,2.24-1.14,4.58-1.14,6.94c0,5.38,1.47,9.69,4.5,13.16c2.92,3.35,7.57,5.05,13.83,5.05c6.24,0,10.73-1.66,13.75-5.06
			c3.08-3.47,4.58-7.78,4.58-13.15C743.16,1124.41,742.78,1122.08,742.02,1119.82z"/>
		<path class="st74" d="M858.1,1214.14c0.06-1.55,0.09-3.22,0.09-4.97c0-8.16-1.17-15.76-3.46-22.58
			c-2.29-6.78-5.58-12.67-9.78-17.49c-4.19-4.81-9.38-8.62-15.45-11.34c-6.08-2.72-13.09-4.1-20.85-4.1
			c-7.51,0-14.3,1.44-20.18,4.27c-5.91,2.85-10.94,6.67-14.95,11.35c-4.04,4.71-7.19,10.28-9.35,16.55
			c-2.18,6.3-3.28,12.91-3.28,19.66c0,8.02,1.22,15.37,3.62,21.85c2.39,6.46,5.77,12.06,10.02,16.63
			c4.25,4.57,9.45,8.16,15.45,10.69c6.03,2.54,12.73,3.83,19.91,3.83c9.62,0,18.23-1.89,25.58-5.61c6.66-3.38,12.29-7.88,16.76-13.4
			l-22.83-13.63c-2.98,2.6-5.9,4.49-8.68,5.6c-3.14,1.26-6.6,1.89-10.29,1.89c-4.93,0-9.19-1.27-12.67-3.78
			c-3.55-2.55-5.88-6.25-6.94-11l-0.54-2.43H858C858.04,1215.5,858.07,1214.85,858.1,1214.14z M791.3,1195.03l0.4-2.34
			c0.79-4.57,2.8-8.36,5.98-11.25c3.22-2.92,7.09-4.41,11.51-4.41c4.83,0,8.93,1.29,12.2,3.82c3.33,2.6,5.36,6.61,6.02,11.92
			l0.28,2.25H791.3z"/>
	</g>
</g>
</svg>
