<?xml version="1.0" encoding="UTF-8"?>
<svg id="Warstwa_2" data-name="Warstwa 2" xmlns="http://www.w3.org/2000/svg" viewBox="0 0 1440.66 247.6">
  <defs>
    <style>
      .cls-1 {
        fill: #090a0c;
        stroke-width: 0px;
      }
    </style>
  </defs>
  <g id="Warstwa_1-2" data-name="Warstwa 1">
    <g>
      <path class="cls-1" d="m899.88,178.04l.33-.99s113.75-95.44,133.49-107.94c1.65-9.21,6.25-26.66,8.88-37.52,2.63-10.2,5.27-20.4,8.23-31.6h-215.89c-2.3,11.52-5.92,24.02-8.23,34.23-2.3,8.89-6.58,24.68-9.54,35.21,17.11-.33,34.23-.66,70.1-.66,16.46,0,25.4,0,39.88-1.32l.33,1.98s-118.53,97.74-138.28,110.25c-1.32,6.91-5.27,22.05-8.23,35.21-2.63,9.54-5.27,20.08-8.88,31.92h217.86c2.3-12.51,4.61-22.71,7.24-32.91,2.3-9.54,6.58-26,10.2-37.85-17.11.66-35.21,1.32-67.14,1.32-13.49,0-25.22,0-40.36.66"/>
      <path class="cls-1" d="m1165.51,0h-83.59c-7.9,35.21-16.78,70.75-29.95,123.41-12.83,52.33-22.05,87.87-31.59,123.41h83.59c8.23-35.87,17.11-71.41,30.28-123.74,12.83-52.66,21.72-87.87,31.26-123.08"/>
      <path class="cls-1" d="m1318.68,129.34c31.65-28.35,103.8-110.63,118.56-129.34h-89.06c-28.77,39.22-62.2,74.48-97.62,112.55h-.99c10.2-40.81,20.41-80.3,29.62-112.55h-83.59c-8.23,35.54-16.78,70.75-29.95,123.41-12.84,52.33-22.05,87.21-31.59,123.41h83.59c5.92-28.63,13.82-60.88,22.38-96.1h5.27c11.85,21.06,26.99,59.57,38.83,85.89,1.97,7.57,6.58,10.2,18.43,10.2h75.69c-4.94-11.19-17.11-35.87-36.2-78.65-5.92-16.46-12.84-29.62-23.37-38.83"/>
      <path class="cls-1" d="m702.94,126.05c-12.18,48.05-28.3,56.93-61.21,56.93-10.86,0-15.52,0-24.74-.66,3.29-14.81,7.9-33.24,14.15-58.25,5.27-21.39,10.86-43.11,16.13-63.19,10.2-.66,16.51-.99,26.05-.99,29.29,0,42.78,12.83,29.62,66.15M688.13,0h-140.77c7.83,14.12,20.2,32.41,20.2,32.41,2.72,4.37,3.56,9.65,2.33,14.64l-10.47,42.54c-2.69,10.74-5.54,22.08-8.58,34.15-12.83,52.33-22.05,88.53-31.59,123.08h121.82c82.6,0,120.12-29.95,140.52-112.55C806.28,36.86,771.4,0,688.13,0"/>
      <path class="cls-1" d="m1419.76,221.7c-.99,0-3.25.05-4.66.14-.47,1.74-.89,3.48-1.27,5.13.85,0,2.64.05,4.8.05,3.63,0,5.18-.85,5.6-2.54.57-2.26-.66-2.78-4.47-2.78m3.77-5.08c5.51,0,8.38,2.21,6.97,7.67-.94,3.63-3.01,5.08-7.11,5.6l-.05.14c3.3.38,4.75,1.22,4.94,4.28.09,1.74.14,3.34.38,4.19h-6.17c-.75,0-.89-.24-.94-1.08,0-4.33-.05-5.56-3.34-5.56-1.88,0-3.67.05-5.56.05-.56,2.63-1.08,4.89-1.41,6.59h-6.59c.75-2.92,1.6-5.84,2.64-10.17,1.27-4.99,2.02-8.33,2.87-11.72h13.37Zm-1.7-4.38c-11.77,0-17.09,5.13-19.63,15.21-2.54,10.26,1.22,15.49,13.04,15.49s17.09-5.13,19.59-15.21c2.59-10.36-1.13-15.49-12.99-15.49m17.98,15.68c-3.15,12.8-10.59,19.68-24.86,19.68-15.77,0-20.67-8.33-17.7-20.15,3.25-12.85,11.16-19.87,24.86-19.87,15.21,0,20.86,7.72,17.7,20.34"/>
      <path class="cls-1" d="m376.12,110.21c-.24.25-4.73,5.01-10.61,5.64-1.55.17-3.2.05-4.89-.51-5.64-1.88-10.69-10.5-5.62-15.67,1.07-1.09,3.62-2.07,5.42-.98l16.92,10.22-1.21,1.31Zm48.14,16.26c-2.21.13-5.7-.14-8.65-3.06-3.49-3.46-44.85-63.29-44.85-63.29l12.46-47.87-.69-.64s-8.43,3.81-15.32,7.1c-5.08,2.43-11.51,4.16-18.86,3.49C340.21,21.45,244.95,0,244.95,0L67.01,111.41l6.91-25.22-1.21-.8L8.31,102.98,0,137.31l1.21.8,57.57-21.5-16.36,59.75-24.09,10.26L1.85,246.82h35.15l10.05-35.71,15.77-5.58-10.45,41.29h35.15l13.99-54.97,37.81-13.37,86.23,15.52-1.81,52.83h30.96l12.04-43.98,14.34,2.16-11.45,41.82h35.15l13.66-49.87,18.51-14.75,24.19,3.54,44.85-42.18-9.67,35.5,39.75-8.78,11.42-45.04s-19.36,1.01-23.23,1.23"/>
    </g>
  </g>
</svg>